<svg width="1920" height="1080" viewBox="0 0 1920 1080" fill="none" xmlns="http://www.w3.org/2000/svg">
<path d="M1920 0H0V1080H1920V0Z" fill="#8FD19F"/>
<path d="M1137.9 216.557L1133.47 211.308H1136.87L1132.99 206.114H1136.03L1128.48 191L1120.93 206.114H1123.91L1120.02 211.308H1123.43L1119 216.557H1128.18V222.552H1128.77V216.557H1137.9ZM1136.64 215.97H1128.71V211.308H1132.71L1136.64 215.97ZM1128.74 201.378L1131.85 205.517H1128.74V201.378ZM1128.16 205.517H1125.05L1128.16 201.378V205.517ZM1128.16 210.711H1124.66L1128.16 206.552V210.711ZM1128.74 206.552L1132.25 210.711H1128.74V206.552ZM1135.75 210.711H1133.01L1129.14 206.105H1132.31L1135.75 210.711ZM1132.58 205.517L1128.74 200.445V192.893L1135.1 205.527L1132.58 205.517ZM1121.84 205.517L1128.16 192.883V200.445L1124.32 205.564L1121.84 205.517ZM1121.16 210.711L1124.61 206.105H1127.77L1123.91 210.702L1121.16 210.711ZM1120.23 215.96L1124.17 211.298H1128.16V215.96H1120.23Z" fill="#121111"/>
<path d="M607.9 738.557L603.471 733.308H606.874L602.986 728.114H606.035L598.482 713L590.93 728.114H593.914L590.016 733.308H593.429L589 738.557H598.184V744.552H598.772V738.557H607.9ZM606.641 737.97H598.706V733.308H602.706L606.641 737.97ZM598.744 723.378L601.848 727.517H598.744V723.378ZM598.156 727.517H595.051L598.156 723.378V727.517ZM598.156 732.711H594.66L598.156 728.552V732.711ZM598.744 728.552L602.249 732.711H598.744V728.552ZM605.746 732.711H603.014L599.135 728.105H602.305L605.746 732.711ZM602.585 727.517L598.744 722.445V714.893L605.103 727.527L602.585 727.517ZM591.844 727.517L598.156 714.883V722.445L594.324 727.564L591.844 727.517ZM591.163 732.711L594.613 728.105H597.774L593.914 732.702L591.163 732.711ZM590.231 737.96L594.165 733.298H598.156V737.96H590.231Z" fill="#121111"/>
<path d="M1650.9 232.557L1646.47 227.308H1649.87L1645.99 222.114H1649.03L1641.48 207L1633.93 222.114H1636.91L1633.02 227.308H1636.43L1632 232.557H1641.18V238.552H1641.77V232.557H1650.9ZM1649.64 231.97H1641.71V227.308H1645.71L1649.64 231.97ZM1641.74 217.378L1644.85 221.517H1641.74V217.378ZM1641.16 221.517H1638.05L1641.16 217.378V221.517ZM1641.16 226.711H1637.66L1641.16 222.552V226.711ZM1641.74 222.552L1645.25 226.711H1641.74V222.552ZM1648.75 226.711H1646.01L1642.14 222.105H1645.31L1648.75 226.711ZM1645.58 221.517L1641.74 216.445V208.893L1648.1 221.527L1645.58 221.517ZM1634.84 221.517L1641.16 208.883V216.445L1637.32 221.564L1634.84 221.517ZM1634.16 226.711L1637.61 222.105H1640.77L1636.91 226.702L1634.16 226.711ZM1633.23 231.96L1637.17 227.298H1641.16V231.96H1633.23Z" fill="#121111"/>
<path d="M1225.71 73.4525L1221.28 68.2031H1224.69L1220.8 63.0096H1223.85L1216.29 47.8954L1208.74 63.0096H1211.73L1207.83 68.2031H1211.24L1206.81 73.4525H1216V79.4478H1216.58V73.4525H1225.71ZM1224.45 72.8651H1216.52V68.2031H1220.52L1224.45 72.8651ZM1216.56 58.273L1219.66 62.4129H1216.56V58.273ZM1215.97 62.4129H1212.86L1215.97 58.273V62.4129ZM1215.97 67.6063H1212.47L1215.97 63.4478V67.6063ZM1216.56 63.4478L1220.06 67.6063H1216.56V63.4478ZM1223.56 67.6063H1220.83L1216.95 63.0003H1220.12L1223.56 67.6063ZM1220.4 62.4129L1216.56 57.3406V49.7882L1222.91 62.4222L1220.4 62.4129ZM1209.66 62.4129L1215.97 49.7788V57.3406L1212.14 62.4595L1209.66 62.4129ZM1208.98 67.6063L1212.43 63.0003H1215.59L1211.73 67.597L1208.98 67.6063ZM1208.04 72.8558L1211.98 68.1938H1215.97V72.8558H1208.04Z" fill="#121111"/>
<path d="M1225.9 674.557L1221.47 669.308H1224.87L1220.99 664.114H1224.03L1216.48 649L1208.93 664.114H1211.91L1208.02 669.308H1211.43L1207 674.557H1216.18V680.552H1216.77V674.557H1225.9ZM1224.64 673.97H1216.71V669.308H1220.71L1224.64 673.97ZM1216.74 659.378L1219.85 663.517H1216.74V659.378ZM1216.16 663.517H1213.05L1216.16 659.378V663.517ZM1216.16 668.711H1212.66L1216.16 664.552V668.711ZM1216.74 664.552L1220.25 668.711H1216.74V664.552ZM1223.75 668.711H1221.01L1217.14 664.105H1220.31L1223.75 668.711ZM1220.58 663.517L1216.74 658.445V650.893L1223.1 663.527L1220.58 663.517ZM1209.84 663.517L1216.16 650.883V658.445L1212.32 663.564L1209.84 663.517ZM1209.16 668.711L1212.61 664.105H1215.77L1211.91 668.702L1209.16 668.711ZM1208.23 673.96L1212.17 669.298H1216.16V673.96H1208.23Z" fill="#121111"/>
<path d="M1483.9 143.557L1479.47 138.308H1482.87L1478.99 133.114H1482.03L1474.48 118L1466.93 133.114H1469.91L1466.02 138.308H1469.43L1465 143.557H1474.18V149.552H1474.77V143.557H1483.9ZM1482.64 142.97H1474.71V138.308H1478.71L1482.64 142.97ZM1474.74 128.378L1477.85 132.517H1474.74V128.378ZM1474.16 132.517H1471.05L1474.16 128.378V132.517ZM1474.16 137.711H1470.66L1474.16 133.552V137.711ZM1474.74 133.552L1478.25 137.711H1474.74V133.552ZM1481.75 137.711H1479.01L1475.14 133.105H1478.31L1481.75 137.711ZM1478.58 132.517L1474.74 127.445V119.893L1481.1 132.527L1478.58 132.517ZM1467.84 132.517L1474.16 119.883V127.445L1470.32 132.564L1467.84 132.517ZM1467.16 137.711L1470.61 133.105H1473.77L1469.91 137.702L1467.16 137.711ZM1466.23 142.96L1470.17 138.298H1474.16V142.96H1466.23Z" fill="#121111"/>
<path d="M1057.66 707.006L1053.24 701.756H1056.64L1052.75 696.563H1055.8L1048.25 681.449L1040.69 696.563H1043.68L1039.78 701.756H1043.19L1038.76 707.006H1047.95V713.001H1048.54V707.006H1057.66ZM1056.41 706.418H1048.47V701.756H1052.47L1056.41 706.418ZM1048.51 691.826L1051.61 695.966H1048.51V691.826ZM1047.92 695.966H1044.82L1047.92 691.826V695.966ZM1047.92 701.16H1044.42L1047.92 697.001V701.16ZM1048.51 697.001L1052.01 701.16H1048.51V697.001ZM1055.51 701.16H1052.78L1048.9 696.554H1052.07L1055.51 701.16ZM1052.35 695.966L1048.51 690.894V683.342L1054.87 695.976L1052.35 695.966ZM1041.61 695.966L1047.92 683.332V690.894L1044.09 696.013L1041.61 695.966ZM1040.93 701.16L1044.38 696.554H1047.54L1043.68 701.15L1040.93 701.16ZM1040 706.409L1043.93 701.747H1047.92V706.409H1040Z" fill="#121111"/>
<path d="M1127.9 518.557L1123.47 513.308H1126.87L1122.99 508.114H1126.03L1118.48 493L1110.93 508.114H1113.91L1110.02 513.308H1113.43L1109 518.557H1118.18V524.552H1118.77V518.557H1127.9ZM1126.64 517.97H1118.71V513.308H1122.71L1126.64 517.97ZM1118.74 503.378L1121.85 507.517H1118.74V503.378ZM1118.16 507.517H1115.05L1118.16 503.378V507.517ZM1118.16 512.711H1114.66L1118.16 508.552V512.711ZM1118.74 508.552L1122.25 512.711H1118.74V508.552ZM1125.75 512.711H1123.01L1119.14 508.105H1122.31L1125.75 512.711ZM1122.58 507.517L1118.74 502.445V494.893L1125.1 507.527L1122.58 507.517ZM1111.84 507.517L1118.16 494.883V502.445L1114.32 507.564L1111.84 507.517ZM1111.16 512.711L1114.61 508.105H1117.77L1113.91 512.702L1111.16 512.711ZM1110.23 517.96L1114.17 513.298H1118.16V517.96H1110.23Z" fill="#121111"/>
<path d="M1660.9 518.557L1656.47 513.308H1659.87L1655.99 508.114H1659.03L1651.48 493L1643.93 508.114H1646.91L1643.02 513.308H1646.43L1642 518.557H1651.18V524.552H1651.77V518.557H1660.9ZM1659.64 517.97H1651.71V513.308H1655.71L1659.64 517.97ZM1651.74 503.378L1654.85 507.517H1651.74V503.378ZM1651.16 507.517H1648.05L1651.16 503.378V507.517ZM1651.16 512.711H1647.66L1651.16 508.552V512.711ZM1651.74 508.552L1655.25 512.711H1651.74V508.552ZM1658.75 512.711H1656.01L1652.14 508.105H1655.31L1658.75 512.711ZM1655.58 507.517L1651.74 502.445V494.893L1658.1 507.527L1655.58 507.517ZM1644.84 507.517L1651.16 494.883V502.445L1647.32 507.564L1644.84 507.517ZM1644.16 512.711L1647.61 508.105H1650.77L1646.91 512.702L1644.16 512.711ZM1643.23 517.96L1647.17 513.298H1651.16V517.96H1643.23Z" fill="#121111"/>
<path d="M1313.06 567.909L1308.63 562.659H1312.03L1308.14 557.466H1311.19L1303.64 542.351L1296.09 557.466H1299.07L1295.17 562.659H1298.59L1294.16 567.909H1303.34V573.904H1303.93V567.909H1313.06ZM1311.8 567.321H1303.86V562.659H1307.86L1311.8 567.321ZM1303.9 552.729L1307 556.869H1303.9V552.729ZM1303.31 556.869H1300.21L1303.31 552.729V556.869ZM1303.31 562.062H1299.82L1303.31 557.904V562.062ZM1303.9 557.904L1307.41 562.062H1303.9V557.904ZM1310.9 562.062H1308.17L1304.29 557.456H1307.46L1310.9 562.062ZM1307.74 556.869L1303.9 551.797V544.244L1310.26 556.878L1307.74 556.869ZM1297 556.869L1303.31 544.235V551.797L1299.48 556.916L1297 556.869ZM1296.32 562.062L1299.77 557.456H1302.93L1299.07 562.053L1296.32 562.062ZM1295.39 567.312L1299.32 562.65H1303.31V567.312H1295.39Z" fill="#121111"/>
<path d="M1382.29 41.9085L1377.86 36.6591H1381.27L1377.38 31.4657H1380.43L1372.87 16.3514L1365.32 31.4657H1368.31L1364.41 36.6591H1367.82L1363.39 41.9085H1372.58V47.9039H1373.16V41.9085H1382.29ZM1381.03 41.3211H1373.1V36.6591H1377.1L1381.03 41.3211ZM1373.14 26.7291L1376.24 30.8689H1373.14V26.7291ZM1372.55 30.8689H1369.44L1372.55 26.7291V30.8689ZM1372.55 36.0624H1369.05L1372.55 31.9039V36.0624ZM1373.14 31.9039L1376.64 36.0624H1373.14V31.9039ZM1380.14 36.0624H1377.41L1373.53 31.4563H1376.7L1380.14 36.0624ZM1376.98 30.8689L1373.14 25.7967V18.2442L1379.49 30.8782L1376.98 30.8689ZM1366.24 30.8689L1372.55 18.2349V25.7967L1368.72 30.9156L1366.24 30.8689ZM1365.55 36.0624L1369 31.4563H1372.17L1368.31 36.0531L1365.55 36.0624ZM1364.62 41.3118L1368.56 36.6498H1372.55V41.3118H1364.62Z" fill="#121111"/>
<path d="M1165.98 878.027L1161.55 872.778H1164.95L1161.06 867.584H1164.11L1156.56 852.47L1149.01 867.584H1151.99L1148.09 872.778H1151.51L1147.08 878.027H1156.26V884.022H1156.85V878.027H1165.98ZM1164.72 877.44H1156.78V872.778H1160.78L1164.72 877.44ZM1156.82 862.848L1159.93 866.987H1156.82V862.848ZM1156.23 866.987H1153.13L1156.23 862.848V866.987ZM1156.23 872.181H1152.74L1156.23 868.022V872.181ZM1156.82 868.022L1160.33 872.181H1156.82V868.022ZM1163.82 872.181H1161.09L1157.21 867.575H1160.38L1163.82 872.181ZM1160.66 866.987L1156.82 861.915V854.363L1163.18 866.997L1160.66 866.987ZM1149.92 866.987L1156.23 854.353V861.915L1152.4 867.034L1149.92 866.987ZM1149.24 872.181L1152.69 867.575H1155.85L1151.99 872.172L1149.24 872.181ZM1148.31 877.43L1152.24 872.768H1156.23V877.43H1148.31Z" fill="#121111"/>
<path d="M98.1634 87.2008L93.7345 81.9514H97.1377L93.2496 76.7579H96.2986L88.7461 61.6437L81.1937 76.7579H84.1774L80.2799 81.9514H83.6925L79.2636 87.2008H88.4477V93.1961H89.0352V87.2008H98.1634ZM96.9046 86.6134H88.9699V81.9514H92.9699L96.9046 86.6134ZM89.0072 72.0213L92.1121 76.1612H89.0072V72.0213ZM88.4198 76.1612H85.3149L88.4198 72.0213V76.1612ZM88.4198 81.3546H84.9233L88.4198 77.1961V81.3546ZM89.0072 77.1961L92.513 81.3546H89.0072V77.1961ZM96.0095 81.3546H93.2776L89.3988 76.7486H92.569L96.0095 81.3546ZM92.8487 76.1612L89.0072 71.0889V63.5364L95.3662 76.1705L92.8487 76.1612ZM82.1074 76.1612L88.4198 63.5271V71.0889L84.5876 76.2078L82.1074 76.1612ZM81.4268 81.3546L84.8767 76.7486H88.0375L84.1774 81.3453L81.4268 81.3546ZM80.4944 86.604L84.4291 81.942H88.4198V86.604H80.4944Z" fill="#121111"/>
<path d="M1346.11 764.082L1341.68 758.833H1345.09L1341.2 753.639H1344.25L1336.7 738.525L1329.14 753.639H1332.13L1328.23 758.833H1331.64L1327.21 764.082H1336.4V770.078H1336.99V764.082H1346.11ZM1344.85 763.495H1336.92V758.833H1340.92L1344.85 763.495ZM1336.96 748.903L1340.06 753.043H1336.96V748.903ZM1336.37 753.043H1333.27L1336.37 748.903V753.043ZM1336.37 758.236H1332.87L1336.37 754.078V758.236ZM1336.96 754.078L1340.46 758.236H1336.96V754.078ZM1343.96 758.236H1341.23L1337.35 753.63H1340.52L1343.96 758.236ZM1340.8 753.043L1336.96 747.97V740.418L1343.32 753.052L1340.8 753.043ZM1330.06 753.043L1336.37 740.409V747.97L1332.54 753.089L1330.06 753.043ZM1329.38 758.236L1332.83 753.63H1335.99L1332.13 758.227L1329.38 758.236ZM1328.44 763.486L1332.38 758.824H1336.37V763.486H1328.44Z" fill="#121111"/>
<path d="M1582.4 641.754L1577.97 636.505H1581.37L1577.48 631.311H1580.53L1572.98 616.197L1565.43 631.311H1568.41L1564.52 636.505H1567.93L1563.5 641.754H1572.68V647.749H1573.27V641.754H1582.4ZM1581.14 641.167H1573.21V636.505H1577.2L1581.14 641.167ZM1573.24 626.575L1576.35 630.715H1573.24V626.575ZM1572.65 630.715H1569.55L1572.65 626.575V630.715ZM1572.65 635.908H1569.16L1572.65 631.749V635.908ZM1573.24 631.749L1576.75 635.908H1573.24V631.749ZM1580.24 635.908H1577.51L1573.63 631.302H1576.8L1580.24 635.908ZM1577.08 630.715L1573.24 625.642V618.09L1579.6 630.724L1577.08 630.715ZM1566.34 630.715L1572.65 618.08V625.642L1568.82 630.761L1566.34 630.715ZM1565.66 635.908L1569.11 631.302H1572.27L1568.41 635.899L1565.66 635.908ZM1564.73 641.157L1568.66 636.495H1572.65V641.157H1564.73Z" fill="#121111"/>
<path d="M1324.16 267.201L1319.73 261.951H1323.14L1319.25 256.758H1322.3L1314.75 241.644L1307.19 256.758H1310.18L1306.28 261.951H1309.69L1305.26 267.201H1314.45V273.196H1315.04V267.201H1324.16ZM1322.9 266.613H1314.97V261.951H1318.97L1322.9 266.613ZM1315.01 252.021L1318.11 256.161H1315.01V252.021ZM1314.42 256.161H1311.31L1314.42 252.021V256.161ZM1314.42 261.355H1310.92L1314.42 257.196V261.355ZM1315.01 257.196L1318.51 261.355H1315.01V257.196ZM1322.01 261.355H1319.28L1315.4 256.749H1318.57L1322.01 261.355ZM1318.85 256.161L1315.01 251.089V243.536L1321.37 256.17L1318.85 256.161ZM1308.11 256.161L1314.42 243.527V251.089L1310.59 256.208L1308.11 256.161ZM1307.43 261.355L1310.88 256.749H1314.04L1310.18 261.345L1307.43 261.355ZM1306.49 266.604L1310.43 261.942H1314.42V266.604H1306.49Z" fill="#121111"/>
<path d="M431.9 71.5571L427.471 66.3077H430.874L426.986 61.1142H430.035L422.482 46L414.93 61.1142H417.914L414.016 66.3077H417.429L413 71.5571H422.184V77.5525H422.772V71.5571H431.9ZM430.641 70.9697H422.706V66.3077H426.706L430.641 70.9697ZM422.744 56.3776L425.848 60.5175H422.744V56.3776ZM422.156 60.5175H419.051L422.156 56.3776V60.5175ZM422.156 65.711H418.66L422.156 61.5525V65.711ZM422.744 61.5525L426.249 65.711H422.744V61.5525ZM429.746 65.711H427.014L423.135 61.1049H426.305L429.746 65.711ZM426.585 60.5175L422.744 55.4452V47.8928L429.103 60.5268L426.585 60.5175ZM415.844 60.5175L422.156 47.8835V55.4452L418.324 60.5641L415.844 60.5175ZM415.163 65.711L418.613 61.1049H421.774L417.914 65.7016L415.163 65.711ZM414.231 70.9604L418.165 66.2984H422.156V70.9604H414.231Z" fill="#121111"/>
<path d="M1781.9 320.557L1777.47 315.308H1780.87L1776.99 310.114H1780.03L1772.48 295L1764.93 310.114H1767.91L1764.02 315.308H1767.43L1763 320.557H1772.18V326.552H1772.77V320.557H1781.9ZM1780.64 319.97H1772.71V315.308H1776.71L1780.64 319.97ZM1772.74 305.378L1775.85 309.517H1772.74V305.378ZM1772.16 309.517H1769.05L1772.16 305.378V309.517ZM1772.16 314.711H1768.66L1772.16 310.552V314.711ZM1772.74 310.552L1776.25 314.711H1772.74V310.552ZM1779.75 314.711H1777.01L1773.14 310.105H1776.31L1779.75 314.711ZM1776.58 309.517L1772.74 304.445V296.893L1779.1 309.527L1776.58 309.517ZM1765.84 309.517L1772.16 296.883V304.445L1768.32 309.564L1765.84 309.517ZM1765.16 314.711L1768.61 310.105H1771.77L1767.91 314.702L1765.16 314.711ZM1764.23 319.96L1768.17 315.298H1772.16V319.96H1764.23Z" fill="#121111"/>
<path d="M978.9 866.557L974.471 861.308H977.874L973.986 856.114H977.035L969.482 841L961.93 856.114H964.914L961.016 861.308H964.429L960 866.557H969.184V872.552H969.772V866.557H978.9ZM977.641 865.97H969.706V861.308H973.706L977.641 865.97ZM969.744 851.378L972.848 855.517H969.744V851.378ZM969.156 855.517H966.051L969.156 851.378V855.517ZM969.156 860.711H965.66L969.156 856.552V860.711ZM969.744 856.552L973.249 860.711H969.744V856.552ZM976.746 860.711H974.014L970.135 856.105H973.305L976.746 860.711ZM973.585 855.517L969.744 850.445V842.893L976.103 855.527L973.585 855.517ZM962.844 855.517L969.156 842.883V850.445L965.324 855.564L962.844 855.517ZM962.163 860.711L965.613 856.105H968.774L964.914 860.702L962.163 860.711ZM961.231 865.96L965.165 861.298H969.156V865.96H961.231Z" fill="#121111"/>
<path d="M794.9 305.557L790.471 300.308H793.874L789.986 295.114H793.035L785.482 280L777.93 295.114H780.914L777.016 300.308H780.429L776 305.557H785.184V311.552H785.772V305.557H794.9ZM793.641 304.97H785.706V300.308H789.706L793.641 304.97ZM785.744 290.378L788.848 294.517H785.744V290.378ZM785.156 294.517H782.051L785.156 290.378V294.517ZM785.156 299.711H781.66L785.156 295.552V299.711ZM785.744 295.552L789.249 299.711H785.744V295.552ZM792.746 299.711H790.014L786.135 295.105H789.305L792.746 299.711ZM789.585 294.517L785.744 289.445V281.893L792.103 294.527L789.585 294.517ZM778.844 294.517L785.156 281.883V289.445L781.324 294.564L778.844 294.517ZM778.163 299.711L781.613 295.105H784.774L780.914 299.702L778.163 299.711ZM777.231 304.96L781.165 300.298H785.156V304.96H777.231Z" fill="#121111"/>
<path d="M1364.9 994.557L1360.47 989.308H1363.87L1359.99 984.114H1363.03L1355.48 969L1347.93 984.114H1350.91L1347.02 989.308H1350.43L1346 994.557H1355.18V1000.55H1355.77V994.557H1364.9ZM1363.64 993.97H1355.71V989.308H1359.71L1363.64 993.97ZM1355.74 979.378L1358.85 983.517H1355.74V979.378ZM1355.16 983.517H1352.05L1355.16 979.378V983.517ZM1355.16 988.711H1351.66L1355.16 984.552V988.711ZM1355.74 984.552L1359.25 988.711H1355.74V984.552ZM1362.75 988.711H1360.01L1356.14 984.105H1359.31L1362.75 988.711ZM1359.58 983.517L1355.74 978.445V970.893L1362.1 983.527L1359.58 983.517ZM1348.84 983.517L1355.16 970.883V978.445L1351.32 983.564L1348.84 983.517ZM1348.16 988.711L1351.61 984.105H1354.77L1350.91 988.702L1348.16 988.711ZM1347.23 993.96L1351.17 989.298H1355.16V993.96H1347.23Z" fill="#121111"/>
<path d="M959.9 103.557L955.471 98.3077H958.874L954.986 93.1142H958.035L950.482 78L942.93 93.1142H945.914L942.016 98.3077H945.429L941 103.557H950.184V109.552H950.772V103.557H959.9ZM958.641 102.97H950.706V98.3077H954.706L958.641 102.97ZM950.744 88.3776L953.848 92.5175H950.744V88.3776ZM950.156 92.5175H947.051L950.156 88.3776V92.5175ZM950.156 97.711H946.66L950.156 93.5525V97.711ZM950.744 93.5525L954.249 97.711H950.744V93.5525ZM957.746 97.711H955.014L951.135 93.1049H954.305L957.746 97.711ZM954.585 92.5175L950.744 87.4452V79.8928L957.103 92.5268L954.585 92.5175ZM943.844 92.5175L950.156 79.8835V87.4452L946.324 92.5641L943.844 92.5175ZM943.163 97.711L946.613 93.1049H949.774L945.914 97.7016L943.163 97.711ZM942.231 102.96L946.165 98.2984H950.156V102.96H942.231Z" fill="#121111"/>
<path d="M391.9 702.557L387.471 697.308H390.874L386.986 692.114H390.035L382.482 677L374.93 692.114H377.914L374.016 697.308H377.429L373 702.557H382.184V708.552H382.772V702.557H391.9ZM390.641 701.97H382.706V697.308H386.706L390.641 701.97ZM382.744 687.378L385.848 691.517H382.744V687.378ZM382.156 691.517H379.051L382.156 687.378V691.517ZM382.156 696.711H378.66L382.156 692.552V696.711ZM382.744 692.552L386.249 696.711H382.744V692.552ZM389.746 696.711H387.014L383.135 692.105H386.305L389.746 696.711ZM386.585 691.517L382.744 686.445V678.893L389.103 691.527L386.585 691.517ZM375.844 691.517L382.156 678.883V686.445L378.324 691.564L375.844 691.517ZM375.163 696.711L378.613 692.105H381.774L377.914 696.702L375.163 696.711ZM374.231 701.96L378.165 697.298H382.156V701.96H374.231Z" fill="#121111"/>
<path d="M1748.9 673.557L1744.47 668.308H1747.87L1743.99 663.114H1747.03L1739.48 648L1731.93 663.114H1734.91L1731.02 668.308H1734.43L1730 673.557H1739.18V679.552H1739.77V673.557H1748.9ZM1747.64 672.97H1739.71V668.308H1743.71L1747.64 672.97ZM1739.74 658.378L1742.85 662.517H1739.74V658.378ZM1739.16 662.517H1736.05L1739.16 658.378V662.517ZM1739.16 667.711H1735.66L1739.16 663.552V667.711ZM1739.74 663.552L1743.25 667.711H1739.74V663.552ZM1746.75 667.711H1744.01L1740.14 663.105H1743.31L1746.75 667.711ZM1743.58 662.517L1739.74 657.445V649.893L1746.1 662.527L1743.58 662.517ZM1732.84 662.517L1739.16 649.883V657.445L1735.32 662.564L1732.84 662.517ZM1732.16 667.711L1735.61 663.105H1738.77L1734.91 667.702L1732.16 667.711ZM1731.23 672.96L1735.17 668.298H1739.16V672.96H1731.23Z" fill="#121111"/>
<path d="M86.8998 623.227L82.4708 617.977H85.8741L81.986 612.784H85.035L77.4825 597.67L69.93 612.784H72.9137L69.0163 617.977H72.4289L68 623.227H77.1841V629.222H77.7715V623.227H86.8998ZM85.641 622.639H77.7063V617.977H81.7063L85.641 622.639ZM77.7436 608.047L80.8485 612.187H77.7436V608.047ZM77.1562 612.187H74.0513L77.1562 608.047V612.187ZM77.1562 617.381H73.6597L77.1562 613.222V617.381ZM77.7436 613.222L81.2494 617.381H77.7436V613.222ZM84.7459 617.381H82.014L78.1352 612.775H81.3053L84.7459 617.381ZM81.5851 612.187L77.7436 607.115V599.563L84.1025 612.197L81.5851 612.187ZM70.8438 612.187L77.1562 599.553V607.115L73.324 612.234L70.8438 612.187ZM70.1631 617.381L73.613 612.775H76.7739L72.9137 617.371L70.1631 617.381ZM69.2307 622.63L73.1655 617.968H77.1562V622.63H69.2307Z" fill="#121111"/>
<path d="M657.9 855.871L653.471 850.621H656.874L652.986 845.428H656.035L648.482 830.313L640.93 845.428H643.914L640.016 850.621H643.429L639 855.871H648.184V861.866H648.772V855.871H657.9ZM656.641 855.283H648.706V850.621H652.706L656.641 855.283ZM648.744 840.691L651.848 844.831H648.744V840.691ZM648.156 844.831H645.051L648.156 840.691V844.831ZM648.156 850.024H644.66L648.156 845.866V850.024ZM648.744 845.866L652.249 850.024H648.744V845.866ZM655.746 850.024H653.014L649.135 845.418H652.305L655.746 850.024ZM652.585 844.831L648.744 839.759V832.206L655.103 844.84L652.585 844.831ZM641.844 844.831L648.156 832.197V839.759L644.324 844.878L641.844 844.831ZM641.163 850.024L644.613 845.418H647.774L643.914 850.015L641.163 850.024ZM640.231 855.274L644.165 850.612H648.156V855.274H640.231Z" fill="#121111"/>
<path d="M637.9 391.557L633.471 386.308H636.874L632.986 381.114H636.035L628.482 366L620.93 381.114H623.914L620.016 386.308H623.429L619 391.557H628.184V397.552H628.772V391.557H637.9ZM636.641 390.97H628.706V386.308H632.706L636.641 390.97ZM628.744 376.378L631.848 380.517H628.744V376.378ZM628.156 380.517H625.051L628.156 376.378V380.517ZM628.156 385.711H624.66L628.156 381.552V385.711ZM628.744 381.552L632.249 385.711H628.744V381.552ZM635.746 385.711H633.014L629.135 381.105H632.305L635.746 385.711ZM632.585 380.517L628.744 375.445V367.893L635.103 380.527L632.585 380.517ZM621.844 380.517L628.156 367.883V375.445L624.324 380.564L621.844 380.517ZM621.163 385.711L624.613 381.105H627.774L623.914 385.702L621.163 385.711ZM620.231 390.96L624.165 386.298H628.156V390.96H620.231Z" fill="#121111"/>
<path d="M206.477 181.452L202.048 176.203H205.451L201.563 171.01H204.612L197.06 155.895L189.507 171.01H192.491L188.593 176.203H192.006L187.577 181.452H196.761V187.448H197.349V181.452H206.477ZM205.218 180.865H197.283V176.203H201.283L205.218 180.865ZM197.321 166.273L200.426 170.413H197.321V166.273ZM196.733 170.413H193.628L196.733 166.273V170.413ZM196.733 175.606H193.237L196.733 171.448V175.606ZM197.321 171.448L200.826 175.606H197.321V171.448ZM204.323 175.606H201.591L197.712 171H200.882L204.323 175.606ZM201.162 170.413L197.321 165.341V157.788L203.68 170.422L201.162 170.413ZM190.421 170.413L196.733 157.779V165.341L192.901 170.459L190.421 170.413ZM189.74 175.606L193.19 171H196.351L192.491 175.597L189.74 175.606ZM188.808 180.856L192.743 176.194H196.733V180.856H188.808Z" fill="#121111"/>
<path d="M243.9 638.557L239.471 633.308H242.874L238.986 628.114H242.035L234.482 613L226.93 628.114H229.914L226.016 633.308H229.429L225 638.557H234.184V644.552H234.772V638.557H243.9ZM242.641 637.97H234.706V633.308H238.706L242.641 637.97ZM234.744 623.378L237.848 627.517H234.744V623.378ZM234.156 627.517H231.051L234.156 623.378V627.517ZM234.156 632.711H230.66L234.156 628.552V632.711ZM234.744 628.552L238.249 632.711H234.744V628.552ZM241.746 632.711H239.014L235.135 628.105H238.305L241.746 632.711ZM238.585 627.517L234.744 622.445V614.893L241.103 627.527L238.585 627.517ZM227.844 627.517L234.156 614.883V622.445L230.324 627.564L227.844 627.517ZM227.163 632.711L230.613 628.105H233.774L229.914 632.702L227.163 632.711ZM226.231 637.96L230.165 633.298H234.156V637.96H226.231Z" fill="#121111"/>
<path d="M1454.43 858.334L1450 853.085H1453.4L1449.51 847.891H1452.56L1445.01 832.777L1437.46 847.891H1440.44L1436.54 853.085H1439.96L1435.53 858.334H1444.71V864.329H1445.3V858.334H1454.43ZM1453.17 857.747H1445.23V853.085H1449.23L1453.17 857.747ZM1445.27 843.154L1448.38 847.294H1445.27V843.154ZM1444.68 847.294H1441.58L1444.68 843.154V847.294ZM1444.68 852.488H1441.19L1444.68 848.329V852.488ZM1445.27 848.329L1448.78 852.488H1445.27V848.329ZM1452.27 852.488H1449.54L1445.66 847.882H1448.83L1452.27 852.488ZM1449.11 847.294L1445.27 842.222V834.67L1451.63 847.304L1449.11 847.294ZM1438.37 847.294L1444.68 834.66V842.222L1440.85 847.341L1438.37 847.294ZM1437.69 852.488L1441.14 847.882H1444.3L1440.44 852.478L1437.69 852.488ZM1436.76 857.737L1440.69 853.075H1444.68V857.737H1436.76Z" fill="#121111"/>
<path d="M1866.48 624.452L1862.05 619.203H1865.45L1861.56 614.01H1864.61L1857.06 598.895L1849.51 614.01H1852.49L1848.59 619.203H1852.01L1847.58 624.452H1856.76V630.448H1857.35V624.452H1866.48ZM1865.22 623.865H1857.28V619.203H1861.28L1865.22 623.865ZM1857.32 609.273L1860.43 613.413H1857.32V609.273ZM1856.73 613.413H1853.63L1856.73 609.273V613.413ZM1856.73 618.606H1853.24L1856.73 614.448V618.606ZM1857.32 614.448L1860.83 618.606H1857.32V614.448ZM1864.32 618.606H1861.59L1857.71 614H1860.88L1864.32 618.606ZM1861.16 613.413L1857.32 608.341V600.788L1863.68 613.422L1861.16 613.413ZM1850.42 613.413L1856.73 600.779V608.341L1852.9 613.459L1850.42 613.413ZM1849.74 618.606L1853.19 614H1856.35L1852.49 618.597L1849.74 618.606ZM1848.81 623.856L1852.74 619.194H1856.73V623.856H1848.81Z" fill="#121111"/>
<path d="M638.477 189.452L634.048 184.203H637.451L633.563 179.01H636.612L629.06 163.895L621.507 179.01H624.491L620.593 184.203H624.006L619.577 189.452H628.761V195.448H629.349V189.452H638.477ZM637.218 188.865H629.283V184.203H633.283L637.218 188.865ZM629.321 174.273L632.426 178.413H629.321V174.273ZM628.733 178.413H625.628L628.733 174.273V178.413ZM628.733 183.606H625.237L628.733 179.448V183.606ZM629.321 179.448L632.826 183.606H629.321V179.448ZM636.323 183.606H633.591L629.712 179H632.882L636.323 183.606ZM633.162 178.413L629.321 173.341V165.788L635.68 178.422L633.162 178.413ZM622.421 178.413L628.733 165.779V173.341L624.901 178.459L622.421 178.413ZM621.74 183.606L625.19 179H628.351L624.491 183.597L621.74 183.606ZM620.808 188.856L624.743 184.194H628.733V188.856H620.808Z" fill="#121111"/>
<path d="M1865.9 1010.56L1861.47 1005.31H1864.87L1860.99 1000.11H1864.03L1856.48 985L1848.93 1000.11H1851.91L1848.02 1005.31H1851.43L1847 1010.56H1856.18V1016.55H1856.77V1010.56H1865.9ZM1864.64 1009.97H1856.71V1005.31H1860.71L1864.64 1009.97ZM1856.74 995.378L1859.85 999.517H1856.74V995.378ZM1856.16 999.517H1853.05L1856.16 995.378V999.517ZM1856.16 1004.71H1852.66L1856.16 1000.55V1004.71ZM1856.74 1000.55L1860.25 1004.71H1856.74V1000.55ZM1863.75 1004.71H1861.01L1857.14 1000.1H1860.31L1863.75 1004.71ZM1860.58 999.517L1856.74 994.445V986.893L1863.1 999.527L1860.58 999.517ZM1849.84 999.517L1856.16 986.883V994.445L1852.32 999.564L1849.84 999.517ZM1849.16 1004.71L1852.61 1000.1H1855.77L1851.91 1004.7L1849.16 1004.71ZM1848.23 1009.96L1852.17 1005.3H1856.16V1009.96H1848.23Z" fill="#121111"/>
<path d="M795.477 871.452L791.048 866.203H794.451L790.563 861.01H793.612L786.06 845.895L778.507 861.01H781.491L777.593 866.203H781.006L776.577 871.452H785.761V877.448H786.349V871.452H795.477ZM794.218 870.865H786.283V866.203H790.283L794.218 870.865ZM786.321 856.273L789.426 860.413H786.321V856.273ZM785.733 860.413H782.628L785.733 856.273V860.413ZM785.733 865.606H782.237L785.733 861.448V865.606ZM786.321 861.448L789.826 865.606H786.321V861.448ZM793.323 865.606H790.591L786.712 861H789.882L793.323 865.606ZM790.162 860.413L786.321 855.341V847.788L792.68 860.422L790.162 860.413ZM779.421 860.413L785.733 847.779V855.341L781.901 860.459L779.421 860.413ZM778.74 865.606L782.19 861H785.351L781.491 865.597L778.74 865.606ZM777.808 870.856L781.743 866.194H785.733V870.856H777.808Z" fill="#121111"/>
<path d="M1374.9 375.557L1370.47 370.308H1373.87L1369.99 365.114H1373.03L1365.48 350L1357.93 365.114H1360.91L1357.02 370.308H1360.43L1356 375.557H1365.18V381.552H1365.77V375.557H1374.9ZM1373.64 374.97H1365.71V370.308H1369.71L1373.64 374.97ZM1365.74 360.378L1368.85 364.517H1365.74V360.378ZM1365.16 364.517H1362.05L1365.16 360.378V364.517ZM1365.16 369.711H1361.66L1365.16 365.552V369.711ZM1365.74 365.552L1369.25 369.711H1365.74V365.552ZM1372.75 369.711H1370.01L1366.14 365.105H1369.31L1372.75 369.711ZM1369.58 364.517L1365.74 359.445V351.893L1372.1 364.527L1369.58 364.517ZM1358.84 364.517L1365.16 351.883V359.445L1361.32 364.564L1358.84 364.517ZM1358.16 369.711L1361.61 365.105H1364.77L1360.91 369.702L1358.16 369.711ZM1357.23 374.96L1361.17 370.298H1365.16V374.96H1357.23Z" fill="#121111"/>
<path d="M961.9 336.557L957.471 331.308H960.874L956.986 326.114H960.035L952.482 311L944.93 326.114H947.914L944.016 331.308H947.429L943 336.557H952.184V342.552H952.772V336.557H961.9ZM960.641 335.97H952.706V331.308H956.706L960.641 335.97ZM952.744 321.378L955.848 325.517H952.744V321.378ZM952.156 325.517H949.051L952.156 321.378V325.517ZM952.156 330.711H948.66L952.156 326.552V330.711ZM952.744 326.552L956.249 330.711H952.744V326.552ZM959.746 330.711H957.014L953.135 326.105H956.305L959.746 330.711ZM956.585 325.517L952.744 320.445V312.893L959.103 325.527L956.585 325.517ZM945.844 325.517L952.156 312.883V320.445L948.324 325.564L945.844 325.517ZM945.163 330.711L948.613 326.105H951.774L947.914 330.702L945.163 330.711ZM944.231 335.96L948.165 331.298H952.156V335.96H944.231Z" fill="#121111"/>
<path d="M1165.9 988.557L1161.47 983.308H1164.87L1160.99 978.114H1164.03L1156.48 963L1148.93 978.114H1151.91L1148.02 983.308H1151.43L1147 988.557H1156.18V994.552H1156.77V988.557H1165.9ZM1164.64 987.97H1156.71V983.308H1160.71L1164.64 987.97ZM1156.74 973.378L1159.85 977.517H1156.74V973.378ZM1156.16 977.517H1153.05L1156.16 973.378V977.517ZM1156.16 982.711H1152.66L1156.16 978.552V982.711ZM1156.74 978.552L1160.25 982.711H1156.74V978.552ZM1163.75 982.711H1161.01L1157.14 978.105H1160.31L1163.75 982.711ZM1160.58 977.517L1156.74 972.445V964.893L1163.1 977.527L1160.58 977.517ZM1149.84 977.517L1156.16 964.883V972.445L1152.32 977.564L1149.84 977.517ZM1149.16 982.711L1152.61 978.105H1155.77L1151.91 982.702L1149.16 982.711ZM1148.23 987.96L1152.17 983.298H1156.16V987.96H1148.23Z" fill="#121111"/>
<path d="M766.9 511.557L762.471 506.308H765.874L761.986 501.114H765.035L757.482 486L749.93 501.114H752.914L749.016 506.308H752.429L748 511.557H757.184V517.552H757.772V511.557H766.9ZM765.641 510.97H757.706V506.308H761.706L765.641 510.97ZM757.744 496.378L760.848 500.517H757.744V496.378ZM757.156 500.517H754.051L757.156 496.378V500.517ZM757.156 505.711H753.66L757.156 501.552V505.711ZM757.744 501.552L761.249 505.711H757.744V501.552ZM764.746 505.711H762.014L758.135 501.105H761.305L764.746 505.711ZM761.585 500.517L757.744 495.445V487.893L764.103 500.527L761.585 500.517ZM750.844 500.517L757.156 487.883V495.445L753.324 500.564L750.844 500.517ZM750.163 505.711L753.613 501.105H756.774L752.914 505.702L750.163 505.711ZM749.231 510.96L753.165 506.298H757.156V510.96H749.231Z" fill="#121111"/>
<path d="M224.9 313.557L220.471 308.308H223.874L219.986 303.114H223.035L215.482 288L207.93 303.114H210.914L207.016 308.308H210.429L206 313.557H215.184V319.552H215.772V313.557H224.9ZM223.641 312.97H215.706V308.308H219.706L223.641 312.97ZM215.744 298.378L218.848 302.517H215.744V298.378ZM215.156 302.517H212.051L215.156 298.378V302.517ZM215.156 307.711H211.66L215.156 303.552V307.711ZM215.744 303.552L219.249 307.711H215.744V303.552ZM222.746 307.711H220.014L216.135 303.105H219.305L222.746 307.711ZM219.585 302.517L215.744 297.445V289.893L222.103 302.527L219.585 302.517ZM208.844 302.517L215.156 289.883V297.445L211.324 302.564L208.844 302.517ZM208.163 307.711L211.613 303.105H214.774L210.914 307.702L208.163 307.711ZM207.231 312.96L211.165 308.298H215.156V312.96H207.231Z" fill="#121111"/>
<path d="M480.9 810.557L476.471 805.308H479.874L475.986 800.114H479.035L471.482 785L463.93 800.114H466.914L463.016 805.308H466.429L462 810.557H471.184V816.552H471.772V810.557H480.9ZM479.641 809.97H471.706V805.308H475.706L479.641 809.97ZM471.744 795.378L474.848 799.517H471.744V795.378ZM471.156 799.517H468.051L471.156 795.378V799.517ZM471.156 804.711H467.66L471.156 800.552V804.711ZM471.744 800.552L475.249 804.711H471.744V800.552ZM478.746 804.711H476.014L472.135 800.105H475.305L478.746 804.711ZM475.585 799.517L471.744 794.445V786.893L478.103 799.527L475.585 799.517ZM464.844 799.517L471.156 786.883V794.445L467.324 799.564L464.844 799.517ZM464.163 804.711L467.613 800.105H470.774L466.914 804.702L464.163 804.711ZM463.231 809.96L467.165 805.298H471.156V809.96H463.231Z" fill="#121111"/>
<path d="M539.665 297.006L535.236 291.756H538.639L534.751 286.563H537.8L530.247 271.449L522.695 286.563H525.679L521.781 291.756H525.194L520.765 297.006H529.949V303.001H530.536V297.006H539.665ZM538.406 296.418H530.471V291.756H534.471L538.406 296.418ZM530.508 281.826L533.613 285.966H530.508V281.826ZM529.921 285.966H526.816L529.921 281.826V285.966ZM529.921 291.16H526.424L529.921 287.001V291.16ZM530.508 287.001L534.014 291.16H530.508V287.001ZM537.511 291.16H534.779L530.9 286.554H534.07L537.511 291.16ZM534.35 285.966L530.508 280.894V273.342L536.867 285.976L534.35 285.966ZM523.609 285.966L529.921 273.332V280.894L526.089 286.013L523.609 285.966ZM522.928 291.16L526.378 286.554H529.539L525.679 291.15L522.928 291.16ZM521.996 296.409L525.93 291.747H529.921V296.409H521.996Z" fill="#121111"/>
<path d="M1776.9 839.557L1772.47 834.308H1775.87L1771.99 829.114H1775.03L1767.48 814L1759.93 829.114H1762.91L1759.02 834.308H1762.43L1758 839.557H1767.18V845.552H1767.77V839.557H1776.9ZM1775.64 838.97H1767.71V834.308H1771.71L1775.64 838.97ZM1767.74 824.378L1770.85 828.517H1767.74V824.378ZM1767.16 828.517H1764.05L1767.16 824.378V828.517ZM1767.16 833.711H1763.66L1767.16 829.552V833.711ZM1767.74 829.552L1771.25 833.711H1767.74V829.552ZM1774.75 833.711H1772.01L1768.14 829.105H1771.31L1774.75 833.711ZM1771.58 828.517L1767.74 823.445V815.893L1774.1 828.527L1771.58 828.517ZM1760.84 828.517L1767.16 815.883V823.445L1763.32 828.564L1760.84 828.517ZM1760.16 833.711L1763.61 829.105H1766.77L1762.91 833.702L1760.16 833.711ZM1759.23 838.96L1763.17 834.298H1767.16V838.96H1759.23Z" fill="#121111"/>
<path d="M362.163 312.441L357.735 307.191H361.138L357.25 301.998H360.299L352.746 286.884L345.194 301.998H348.177L344.28 307.191H347.693L343.264 312.441H352.448V318.436H353.035V312.441H362.163ZM360.905 311.853H352.97V307.191H356.97L360.905 311.853ZM353.007 297.261L356.112 301.401H353.007V297.261ZM352.42 301.401H349.315L352.42 297.261V301.401ZM352.42 306.595H348.923L352.42 302.436V306.595ZM353.007 302.436L356.513 306.595H353.007V302.436ZM360.01 306.595H357.278L353.399 301.989H356.569L360.01 306.595ZM356.849 301.401L353.007 296.329V288.776L359.366 301.41L356.849 301.401ZM346.107 301.401L352.42 288.767V296.329L348.588 301.448L346.107 301.401ZM345.427 306.595L348.877 301.989H352.038L348.177 306.585L345.427 306.595ZM344.494 311.844L348.429 307.182H352.42V311.844H344.494Z" fill="#121111"/>
<path d="M813.9 980.557L809.471 975.308H812.874L808.986 970.114H812.035L804.482 955L796.93 970.114H799.914L796.016 975.308H799.429L795 980.557H804.184V986.552H804.772V980.557H813.9ZM812.641 979.97H804.706V975.308H808.706L812.641 979.97ZM804.744 965.378L807.848 969.517H804.744V965.378ZM804.156 969.517H801.051L804.156 965.378V969.517ZM804.156 974.711H800.66L804.156 970.552V974.711ZM804.744 970.552L808.249 974.711H804.744V970.552ZM811.746 974.711H809.014L805.135 970.105H808.305L811.746 974.711ZM808.585 969.517L804.744 964.445V956.893L811.103 969.527L808.585 969.517ZM797.844 969.517L804.156 956.883V964.445L800.324 969.564L797.844 969.517ZM797.163 974.711L800.613 970.105H803.774L799.914 974.702L797.163 974.711ZM796.231 979.96L800.165 975.298H804.156V979.96H796.231Z" fill="#121111"/>
<path d="M990.9 1036.56L986.471 1031.31H989.874L985.986 1026.11H989.035L981.482 1011L973.93 1026.11H976.914L973.016 1031.31H976.429L972 1036.56H981.184V1042.55H981.772V1036.56H990.9ZM989.641 1035.97H981.706V1031.31H985.706L989.641 1035.97ZM981.744 1021.38L984.848 1025.52H981.744V1021.38ZM981.156 1025.52H978.051L981.156 1021.38V1025.52ZM981.156 1030.71H977.66L981.156 1026.55V1030.71ZM981.744 1026.55L985.249 1030.71H981.744V1026.55ZM988.746 1030.71H986.014L982.135 1026.1H985.305L988.746 1030.71ZM985.585 1025.52L981.744 1020.45V1012.89L988.103 1025.53L985.585 1025.52ZM974.844 1025.52L981.156 1012.88V1020.45L977.324 1025.56L974.844 1025.52ZM974.163 1030.71L977.613 1026.1H980.774L976.914 1030.7L974.163 1030.71ZM973.231 1035.96L977.165 1031.3H981.156V1035.96H973.231Z" fill="#121111"/>
<path d="M225.479 57.5571L221.05 52.3077H224.454L220.565 47.1142H223.614L216.062 32L208.51 47.1142H211.493L207.596 52.3077H211.008L206.579 57.5571H215.764V63.5525H216.351V57.5571H225.479ZM224.22 56.9697H216.286V52.3077H220.286L224.22 56.9697ZM216.323 42.3776L219.428 46.5175H216.323V42.3776ZM215.736 46.5175H212.631L215.736 42.3776V46.5175ZM215.736 51.711H212.239L215.736 47.5525V51.711ZM216.323 47.5525L219.829 51.711H216.323V47.5525ZM223.325 51.711H220.593L216.715 47.1049H219.885L223.325 51.711ZM220.165 46.5175L216.323 41.4452V33.8928L222.682 46.5268L220.165 46.5175ZM209.423 46.5175L215.736 33.8835V41.4452L211.903 46.5641L209.423 46.5175ZM208.743 51.711L212.193 47.1049H215.353L211.493 51.7016L208.743 51.711ZM207.81 56.9604L211.745 52.2984H215.736V56.9604H207.81Z" fill="#121111"/>
<path d="M1473.43 734.439L1469 729.189H1472.4L1468.52 723.996H1471.56L1464.01 708.881L1456.46 723.996H1459.44L1455.55 729.189H1458.96L1454.53 734.439H1463.71V740.434H1464.3V734.439H1473.43ZM1472.17 733.851H1464.24V729.189H1468.24L1472.17 733.851ZM1464.27 719.259L1467.38 723.399H1464.27V719.259ZM1463.69 723.399H1460.58L1463.69 719.259V723.399ZM1463.69 728.592H1460.19L1463.69 724.434V728.592ZM1464.27 724.434L1467.78 728.592H1464.27V724.434ZM1471.28 728.592H1468.54L1464.66 723.986H1467.84L1471.28 728.592ZM1468.11 723.399L1464.27 718.327V710.774L1470.63 723.408L1468.11 723.399ZM1457.37 723.399L1463.69 710.765V718.327L1459.85 723.446L1457.37 723.399ZM1456.69 728.592L1460.14 723.986H1463.3L1459.44 728.583L1456.69 728.592ZM1455.76 733.842L1459.7 729.18H1463.69V733.842H1455.76Z" fill="#121111"/>
<path d="M1876.9 423.557L1872.47 418.308H1875.87L1871.99 413.114H1875.03L1867.48 398L1859.93 413.114H1862.91L1859.02 418.308H1862.43L1858 423.557H1867.18V429.552H1867.77V423.557H1876.9ZM1875.64 422.97H1867.71V418.308H1871.71L1875.64 422.97ZM1867.74 408.378L1870.85 412.517H1867.74V408.378ZM1867.16 412.517H1864.05L1867.16 408.378V412.517ZM1867.16 417.711H1863.66L1867.16 413.552V417.711ZM1867.74 413.552L1871.25 417.711H1867.74V413.552ZM1874.75 417.711H1872.01L1868.14 413.105H1871.31L1874.75 417.711ZM1871.58 412.517L1867.74 407.445V399.893L1874.1 412.527L1871.58 412.517ZM1860.84 412.517L1867.16 399.883V407.445L1863.32 412.564L1860.84 412.517ZM1860.16 417.711L1863.61 413.105H1866.77L1862.91 417.702L1860.16 417.711ZM1859.23 422.96L1863.17 418.298H1867.16V422.96H1859.23Z" fill="#121111"/>
<path d="M1526.9 343.557L1522.47 338.308H1525.87L1521.99 333.114H1525.03L1517.48 318L1509.93 333.114H1512.91L1509.02 338.308H1512.43L1508 343.557H1517.18V349.552H1517.77V343.557H1526.9ZM1525.64 342.97H1517.71V338.308H1521.71L1525.64 342.97ZM1517.74 328.378L1520.85 332.517H1517.74V328.378ZM1517.16 332.517H1514.05L1517.16 328.378V332.517ZM1517.16 337.711H1513.66L1517.16 333.552V337.711ZM1517.74 333.552L1521.25 337.711H1517.74V333.552ZM1524.75 337.711H1522.01L1518.14 333.105H1521.31L1524.75 337.711ZM1521.58 332.517L1517.74 327.445V319.893L1524.1 332.527L1521.58 332.517ZM1510.84 332.517L1517.16 319.883V327.445L1513.32 332.564L1510.84 332.517ZM1510.16 337.711L1513.61 333.105H1516.77L1512.91 337.702L1510.16 337.711ZM1509.23 342.96L1513.17 338.298H1517.16V342.96H1509.23Z" fill="#121111"/>
<path d="M519.479 546.557L515.05 541.308H518.454L514.565 536.114H517.614L510.062 521L502.51 536.114H505.493L501.596 541.308H505.008L500.579 546.557H509.764V552.552H510.351V546.557H519.479ZM518.22 545.97H510.286V541.308H514.286L518.22 545.97ZM510.323 531.378L513.428 535.517H510.323V531.378ZM509.736 535.517H506.631L509.736 531.378V535.517ZM509.736 540.711H506.239L509.736 536.552V540.711ZM510.323 536.552L513.829 540.711H510.323V536.552ZM517.325 540.711H514.593L510.715 536.105H513.885L517.325 540.711ZM514.165 535.517L510.323 530.445V522.893L516.682 535.527L514.165 535.517ZM503.423 535.517L509.736 522.883V530.445L505.903 535.564L503.423 535.517ZM502.743 540.711L506.193 536.105H509.353L505.493 540.702L502.743 540.711ZM501.81 545.96L505.745 541.298H509.736V545.96H501.81Z" fill="#121111"/>
<path d="M657.479 65.5571L653.05 60.3077H656.454L652.565 55.1142H655.614L648.062 40L640.51 55.1142H643.493L639.596 60.3077H643.008L638.579 65.5571H647.764V71.5525H648.351V65.5571H657.479ZM656.22 64.9697H648.286V60.3077H652.286L656.22 64.9697ZM648.323 50.3776L651.428 54.5175H648.323V50.3776ZM647.736 54.5175H644.631L647.736 50.3776V54.5175ZM647.736 59.711H644.239L647.736 55.5525V59.711ZM648.323 55.5525L651.829 59.711H648.323V55.5525ZM655.325 59.711H652.593L648.715 55.1049H651.885L655.325 59.711ZM652.165 54.5175L648.323 49.4452V41.8928L654.682 54.5268L652.165 54.5175ZM641.423 54.5175L647.736 41.8835V49.4452L643.903 54.5641L641.423 54.5175ZM640.743 59.711L644.193 55.1049H647.353L643.493 59.7016L640.743 59.711ZM639.81 64.9604L643.745 60.2984H647.736V64.9604H639.81Z" fill="#121111"/>
<path d="M815.9 684.557L811.471 679.308H814.874L810.986 674.114H814.035L806.482 659L798.93 674.114H801.914L798.016 679.308H801.429L797 684.557H806.184V690.552H806.772V684.557H815.9ZM814.641 683.97H806.706V679.308H810.706L814.641 683.97ZM806.744 669.378L809.848 673.517H806.744V669.378ZM806.156 673.517H803.051L806.156 669.378V673.517ZM806.156 678.711H802.66L806.156 674.552V678.711ZM806.744 674.552L810.249 678.711H806.744V674.552ZM813.746 678.711H811.014L807.135 674.105H810.305L813.746 678.711ZM810.585 673.517L806.744 668.445V660.893L813.103 673.527L810.585 673.517ZM799.844 673.517L806.156 660.883V668.445L802.324 673.564L799.844 673.517ZM799.163 678.711L802.613 674.105H805.774L801.914 678.702L799.163 678.711ZM798.231 683.96L802.165 679.298H806.156V683.96H798.231Z" fill="#121111"/>
<path d="M1866.9 833.557L1862.47 828.308H1865.87L1861.99 823.114H1865.03L1857.48 808L1849.93 823.114H1852.91L1849.02 828.308H1852.43L1848 833.557H1857.18V839.552H1857.77V833.557H1866.9ZM1865.64 832.97H1857.71V828.308H1861.71L1865.64 832.97ZM1857.74 818.378L1860.85 822.517H1857.74V818.378ZM1857.16 822.517H1854.05L1857.16 818.378V822.517ZM1857.16 827.711H1853.66L1857.16 823.552V827.711ZM1857.74 823.552L1861.25 827.711H1857.74V823.552ZM1864.75 827.711H1862.01L1858.14 823.105H1861.31L1864.75 827.711ZM1861.58 822.517L1857.74 817.445V809.893L1864.1 822.527L1861.58 822.517ZM1850.84 822.517L1857.16 809.883V817.445L1853.32 822.564L1850.84 822.517ZM1850.16 827.711L1853.61 823.105H1856.77L1852.91 827.702L1850.16 827.711ZM1849.23 832.96L1853.17 828.298H1857.16V832.96H1849.23Z" fill="#121111"/>
<path d="M78.4009 367.676L73.972 362.426H77.3753L73.4872 357.233H76.5361L68.9837 342.119L61.4312 357.233H64.4149L60.5175 362.426H63.9301L59.5012 367.676H68.6853V373.671H69.2727V367.676H78.4009ZM77.1422 367.088H69.2075V362.426H73.2074L77.1422 367.088ZM69.2447 352.496L72.3496 356.636H69.2447V352.496ZM68.6573 356.636H65.5524L68.6573 352.496V356.636ZM68.6573 361.829H65.1608L68.6573 357.671V361.829ZM69.2447 357.671L72.7506 361.829H69.2447V357.671ZM76.2471 361.829H73.5151L69.6364 357.223H72.8065L76.2471 361.829ZM73.0862 356.636L69.2447 351.564V344.011L75.6037 356.645L73.0862 356.636ZM62.345 356.636L68.6573 344.002V351.564L64.8252 356.683L62.345 356.636ZM61.6643 361.829L65.1142 357.223H68.2751L64.4149 361.82L61.6643 361.829ZM60.7319 367.079L64.6666 362.417H68.6573V367.079H60.7319Z" fill="#121111"/>
<path d="M292.9 886.557L288.471 881.308H291.874L287.986 876.114H291.035L283.482 861L275.93 876.114H278.914L275.016 881.308H278.429L274 886.557H283.184V892.552H283.772V886.557H292.9ZM291.641 885.97H283.706V881.308H287.706L291.641 885.97ZM283.744 871.378L286.848 875.517H283.744V871.378ZM283.156 875.517H280.051L283.156 871.378V875.517ZM283.156 880.711H279.66L283.156 876.552V880.711ZM283.744 876.552L287.249 880.711H283.744V876.552ZM290.746 880.711H288.014L284.135 876.105H287.305L290.746 880.711ZM287.585 875.517L283.744 870.445V862.893L290.103 875.527L287.585 875.517ZM276.844 875.517L283.156 862.883V870.445L279.324 875.564L276.844 875.517ZM276.163 880.711L279.613 876.105H282.774L278.914 880.702L276.163 880.711ZM275.231 885.96L279.165 881.298H283.156V885.96H275.231Z" fill="#121111"/>
<path d="M470.9 420.557L466.471 415.308H469.874L465.986 410.114H469.035L461.482 395L453.93 410.114H456.914L453.016 415.308H456.429L452 420.557H461.184V426.552H461.772V420.557H470.9ZM469.641 419.97H461.706V415.308H465.706L469.641 419.97ZM461.744 405.378L464.848 409.517H461.744V405.378ZM461.156 409.517H458.051L461.156 405.378V409.517ZM461.156 414.711H457.66L461.156 410.552V414.711ZM461.744 410.552L465.249 414.711H461.744V410.552ZM468.746 414.711H466.014L462.135 410.105H465.305L468.746 414.711ZM465.585 409.517L461.744 404.445V396.893L468.103 409.527L465.585 409.517ZM454.844 409.517L461.156 396.883V404.445L457.324 409.564L454.844 409.517ZM454.163 414.711L457.613 410.105H460.774L456.914 414.702L454.163 414.711ZM453.231 419.96L457.165 415.298H461.156V419.96H453.231Z" fill="#121111"/>
<path d="M1758.35 1052.56L1753.92 1047.31H1757.33L1753.44 1042.11H1756.49L1748.93 1027L1741.38 1042.11H1744.37L1740.47 1047.31H1743.88L1739.45 1052.56H1748.64V1058.55H1749.22V1052.56H1758.35ZM1757.09 1051.97H1749.16V1047.31H1753.16L1757.09 1051.97ZM1749.19 1037.38L1752.3 1041.52H1749.19V1037.38ZM1748.61 1041.52H1745.5L1748.61 1037.38V1041.52ZM1748.61 1046.71H1745.11L1748.61 1042.55V1046.71ZM1749.19 1042.55L1752.7 1046.71H1749.19V1042.55ZM1756.2 1046.71H1753.47L1749.59 1042.1H1752.76L1756.2 1046.71ZM1753.04 1041.52L1749.19 1036.45V1028.89L1755.55 1041.53L1753.04 1041.52ZM1742.3 1041.52L1748.61 1028.88V1036.45L1744.78 1041.56L1742.3 1041.52ZM1741.61 1046.71L1745.06 1042.1H1748.23L1744.37 1046.7L1741.61 1046.71ZM1740.68 1051.96L1744.62 1047.3H1748.61V1051.96H1740.68Z" fill="#121111"/>
<path d="M342.9 490.557L338.471 485.308H341.874L337.986 480.114H341.035L333.482 465L325.93 480.114H328.914L325.016 485.308H328.429L324 490.557H333.184V496.552H333.772V490.557H342.9ZM341.641 489.97H333.706V485.308H337.706L341.641 489.97ZM333.744 475.378L336.848 479.517H333.744V475.378ZM333.156 479.517H330.051L333.156 475.378V479.517ZM333.156 484.711H329.66L333.156 480.552V484.711ZM333.744 480.552L337.249 484.711H333.744V480.552ZM340.746 484.711H338.014L334.135 480.105H337.305L340.746 484.711ZM337.585 479.517L333.744 474.445V466.893L340.103 479.527L337.585 479.517ZM326.844 479.517L333.156 466.883V474.445L329.324 479.564L326.844 479.517ZM326.163 484.711L329.613 480.105H332.774L328.914 484.702L326.163 484.711ZM325.231 489.96L329.165 485.298H333.156V489.96H325.231Z" fill="#121111"/>
<path d="M667.401 1057.68L662.972 1052.43H666.375L662.487 1047.23H665.536L657.984 1032.12L650.431 1047.23H653.415L649.517 1052.43H652.93L648.501 1057.68H657.685V1063.67H658.273V1057.68H667.401ZM666.142 1057.09H658.207V1052.43H662.207L666.142 1057.09ZM658.245 1042.5L661.35 1046.64H658.245V1042.5ZM657.657 1046.64H654.552L657.657 1042.5V1046.64ZM657.657 1051.83H654.161L657.657 1047.67V1051.83ZM658.245 1047.67L661.751 1051.83H658.245V1047.67ZM665.247 1051.83H662.515L658.636 1047.22H661.807L665.247 1051.83ZM662.086 1046.64L658.245 1041.56V1034.01L664.604 1046.65L662.086 1046.64ZM651.345 1046.64L657.657 1034V1041.56L653.825 1046.68L651.345 1046.64ZM650.664 1051.83L654.114 1047.22H657.275L653.415 1051.82L650.664 1051.83ZM649.732 1057.08L653.667 1052.42H657.657V1057.08H649.732Z" fill="#121111"/>
<path d="M302.9 1020.56L298.471 1015.31H301.874L297.986 1010.11H301.035L293.482 995L285.93 1010.11H288.914L285.016 1015.31H288.429L284 1020.56H293.184V1026.55H293.772V1020.56H302.9ZM301.641 1019.97H293.706V1015.31H297.706L301.641 1019.97ZM293.744 1005.38L296.848 1009.52H293.744V1005.38ZM293.156 1009.52H290.051L293.156 1005.38V1009.52ZM293.156 1014.71H289.66L293.156 1010.55V1014.71ZM293.744 1010.55L297.249 1014.71H293.744V1010.55ZM300.746 1014.71H298.014L294.135 1010.1H297.305L300.746 1014.71ZM297.585 1009.52L293.744 1004.45V996.893L300.103 1009.53L297.585 1009.52ZM286.844 1009.52L293.156 996.883V1004.45L289.324 1009.56L286.844 1009.52ZM286.163 1014.71L289.613 1010.1H292.774L288.914 1014.7L286.163 1014.71ZM285.231 1019.96L289.165 1015.3H293.156V1019.96H285.231Z" fill="#121111"/>
<path d="M1676.4 58.5571L1671.97 53.3077H1675.38L1671.49 48.1142H1674.54L1666.98 33L1659.43 48.1142H1662.41L1658.52 53.3077H1661.93L1657.5 58.5571H1666.69V64.5525H1667.27V58.5571H1676.4ZM1675.14 57.9697H1667.21V53.3077H1671.21L1675.14 57.9697ZM1667.24 43.3776L1670.35 47.5175H1667.24V43.3776ZM1666.66 47.5175H1663.55L1666.66 43.3776V47.5175ZM1666.66 52.711H1663.16L1666.66 48.5525V52.711ZM1667.24 48.5525L1670.75 52.711H1667.24V48.5525ZM1674.25 52.711H1671.52L1667.64 48.1049H1670.81L1674.25 52.711ZM1671.09 47.5175L1667.24 42.4452V34.8928L1673.6 47.5268L1671.09 47.5175ZM1660.34 47.5175L1666.66 34.8835V42.4452L1662.83 47.5641L1660.34 47.5175ZM1659.66 52.711L1663.11 48.1049H1666.28L1662.41 52.7016L1659.66 52.711ZM1658.73 57.9604L1662.67 53.2984H1666.66V57.9604H1658.73Z" fill="#121111"/>
<path d="M206.9 490.557L202.471 485.308H205.874L201.986 480.114H205.035L197.482 465L189.93 480.114H192.914L189.016 485.308H192.429L188 490.557H197.184V496.552H197.772V490.557H206.9ZM205.641 489.97H197.706V485.308H201.706L205.641 489.97ZM197.744 475.378L200.848 479.517H197.744V475.378ZM197.156 479.517H194.051L197.156 475.378V479.517ZM197.156 484.711H193.66L197.156 480.552V484.711ZM197.744 480.552L201.249 484.711H197.744V480.552ZM204.746 484.711H202.014L198.135 480.105H201.305L204.746 484.711ZM201.585 479.517L197.744 474.445V466.893L204.103 479.527L201.585 479.517ZM190.844 479.517L197.156 466.883V474.445L193.324 479.564L190.844 479.517ZM190.163 484.711L193.613 480.105H196.774L192.914 484.702L190.163 484.711ZM189.231 489.96L193.165 485.298H197.156V489.96H189.231Z" fill="#121111"/>
<path d="M216.9 779.557L212.471 774.308H215.874L211.986 769.114H215.035L207.482 754L199.93 769.114H202.914L199.016 774.308H202.429L198 779.557H207.184V785.552H207.772V779.557H216.9ZM215.641 778.97H207.706V774.308H211.706L215.641 778.97ZM207.744 764.378L210.848 768.517H207.744V764.378ZM207.156 768.517H204.051L207.156 764.378V768.517ZM207.156 773.711H203.66L207.156 769.552V773.711ZM207.744 769.552L211.249 773.711H207.744V769.552ZM214.746 773.711H212.014L208.135 769.105H211.305L214.746 773.711ZM211.585 768.517L207.744 763.445V755.893L214.103 768.527L211.585 768.517ZM200.844 768.517L207.156 755.883V763.445L203.324 768.564L200.844 768.517ZM200.163 773.711L203.613 769.105H206.774L202.914 773.702L200.163 773.711ZM199.231 778.96L203.165 774.298H207.156V778.96H199.231Z" fill="#121111"/>
<path d="M943.242 536.357L938.813 531.108H942.216L938.328 525.914H941.377L933.824 510.8L926.272 525.914H929.256L925.358 531.108H928.771L924.342 536.357H933.526V542.353H934.113V536.357H943.242ZM941.983 535.77H934.048V531.108H938.048L941.983 535.77ZM934.085 521.178L937.19 525.318H934.085V521.178ZM933.498 525.318H930.393L933.498 521.178V525.318ZM933.498 530.511H930.002L933.498 526.353V530.511ZM934.085 526.353L937.591 530.511H934.085V526.353ZM941.088 530.511H938.356L934.477 525.905H937.647L941.088 530.511ZM937.927 525.318L934.085 520.245V512.693L940.444 525.327L937.927 525.318ZM927.186 525.318L933.498 512.684V520.245L929.666 525.364L927.186 525.318ZM926.505 530.511L929.955 525.905H933.116L929.256 530.502L926.505 530.511ZM925.573 535.761L929.507 531.099H933.498V535.761H925.573Z" fill="#121111"/>
<path d="M1847.9 135.557L1843.47 130.308H1846.87L1842.99 125.114H1846.03L1838.48 110L1830.93 125.114H1833.91L1830.02 130.308H1833.43L1829 135.557H1838.18V141.552H1838.77V135.557H1847.9ZM1846.64 134.97H1838.71V130.308H1842.71L1846.64 134.97ZM1838.74 120.378L1841.85 124.517H1838.74V120.378ZM1838.16 124.517H1835.05L1838.16 120.378V124.517ZM1838.16 129.711H1834.66L1838.16 125.552V129.711ZM1838.74 125.552L1842.25 129.711H1838.74V125.552ZM1845.75 129.711H1843.01L1839.14 125.105H1842.31L1845.75 129.711ZM1842.58 124.517L1838.74 119.445V111.893L1845.1 124.527L1842.58 124.517ZM1831.84 124.517L1838.16 111.883V119.445L1834.32 124.564L1831.84 124.517ZM1831.16 129.711L1834.61 125.105H1837.77L1833.91 129.702L1831.16 129.711ZM1830.23 134.96L1834.17 130.298H1838.16V134.96H1830.23Z" fill="#121111"/>
<path d="M363.056 149.909L358.627 144.659H362.031L358.143 139.466H361.192L353.639 124.351L346.087 139.466H349.07L345.173 144.659H348.585L344.157 149.909H353.341V155.904H353.928V149.909H363.056ZM361.798 149.321H353.863V144.659H357.863L361.798 149.321ZM353.9 134.729L357.005 138.869H353.9V134.729ZM353.313 138.869H350.208L353.313 134.729V138.869ZM353.313 144.062H349.816L353.313 139.904V144.062ZM353.9 139.904L357.406 144.062H353.9V139.904ZM360.902 144.062H358.171L354.292 139.456H357.462L360.902 144.062ZM357.742 138.869L353.9 133.797V126.244L360.259 138.878L357.742 138.869ZM347 138.869L353.313 126.235V133.797L349.481 138.916L347 138.869ZM346.32 144.062L349.77 139.456H352.93L349.07 144.053L346.32 144.062ZM345.387 149.312L349.322 144.65H353.313V149.312H345.387Z" fill="#121111"/>
<path d="M1611.01 826.79L1606.58 821.541H1609.98L1606.09 816.347H1609.14L1601.59 801.233L1594.04 816.347H1597.02L1593.12 821.541H1596.54L1592.11 826.79H1601.29V832.785H1601.88V826.79H1611.01ZM1609.75 826.203H1601.81V821.541H1605.81L1609.75 826.203ZM1601.85 811.611L1604.96 815.75H1601.85V811.611ZM1601.26 815.75H1598.16L1601.26 811.611V815.75ZM1601.26 820.944H1597.77L1601.26 816.785V820.944ZM1601.85 816.785L1605.36 820.944H1601.85V816.785ZM1608.85 820.944H1606.12L1602.24 816.338H1605.41L1608.85 820.944ZM1605.69 815.75L1601.85 810.678V803.126L1608.21 815.76L1605.69 815.75ZM1594.95 815.75L1601.26 803.116V810.678L1597.43 815.797L1594.95 815.75ZM1594.27 820.944L1597.72 816.338H1600.88L1597.02 820.935L1594.27 820.944ZM1593.34 826.193L1597.27 821.531H1601.26V826.193H1593.34Z" fill="#121111"/>
<path d="M657.056 638.909L652.627 633.659H656.031L652.143 628.466H655.192L647.639 613.351L640.087 628.466H643.07L639.173 633.659H642.585L638.157 638.909H647.341V644.904H647.928V638.909H657.056ZM655.798 638.321H647.863V633.659H651.863L655.798 638.321ZM647.9 623.729L651.005 627.869H647.9V623.729ZM647.313 627.869H644.208L647.313 623.729V627.869ZM647.313 633.062H643.816L647.313 628.904V633.062ZM647.9 628.904L651.406 633.062H647.9V628.904ZM654.902 633.062H652.171L648.292 628.456H651.462L654.902 633.062ZM651.742 627.869L647.9 622.797V615.244L654.259 627.878L651.742 627.869ZM641 627.869L647.313 615.235V622.797L643.481 627.916L641 627.869ZM640.32 633.062L643.77 628.456H646.93L643.07 633.053L640.32 633.062ZM639.387 638.312L643.322 633.65H647.313V638.312H639.387Z" fill="#121111"/>
<path d="M125.793 1036.6L121.364 1031.35H124.767L120.879 1026.15H123.928L116.375 1011.04L108.823 1026.15H111.807L107.909 1031.35H111.322L106.893 1036.6H116.077V1042.59H116.664V1036.6H125.793ZM124.534 1036.01H116.599V1031.35H120.599L124.534 1036.01ZM116.637 1021.42L119.741 1025.56H116.637V1021.42ZM116.049 1025.56H112.944L116.049 1021.42V1025.56ZM116.049 1030.75H112.553L116.049 1026.59V1030.75ZM116.637 1026.59L120.142 1030.75H116.637V1026.59ZM123.639 1030.75H120.907L117.028 1026.14H120.198L123.639 1030.75ZM120.478 1025.56L116.637 1020.48V1012.93L122.995 1025.56L120.478 1025.56ZM109.737 1025.56L116.049 1012.92V1020.48L112.217 1025.6L109.737 1025.56ZM109.056 1030.75L112.506 1026.14H115.667L111.807 1030.74L109.056 1030.75ZM108.124 1036L112.058 1031.34H116.049V1036H108.124Z" fill="#121111"/>
<path d="M509.978 949.027L505.549 943.778H508.952L505.064 938.584H508.113L500.561 923.47L493.008 938.584H495.992L492.095 943.778H495.507L491.078 949.027H500.262V955.022H500.85V949.027H509.978ZM508.719 948.44H500.785V943.778H504.785L508.719 948.44ZM500.822 933.848L503.927 937.987H500.822V933.848ZM500.234 937.987H497.13L500.234 933.848V937.987ZM500.234 943.181H496.738L500.234 939.022V943.181ZM500.822 939.022L504.328 943.181H500.822V939.022ZM507.824 943.181H505.092L501.213 938.575H504.384L507.824 943.181ZM504.663 937.987L500.822 932.915V925.363L507.181 937.997L504.663 937.987ZM493.922 937.987L500.234 925.353V932.915L496.402 938.034L493.922 937.987ZM493.241 943.181L496.691 938.575H499.852L495.992 943.172L493.241 943.181ZM492.309 948.43L496.244 943.768H500.234V948.43H492.309Z" fill="#121111"/>
<path d="M795.056 157.909L790.627 152.659H794.031L790.143 147.466H793.192L785.639 132.351L778.087 147.466H781.07L777.173 152.659H780.585L776.157 157.909H785.341V163.904H785.928V157.909H795.056ZM793.798 157.321H785.863V152.659H789.863L793.798 157.321ZM785.9 142.729L789.005 146.869H785.9V142.729ZM785.313 146.869H782.208L785.313 142.729V146.869ZM785.313 152.062H781.816L785.313 147.904V152.062ZM785.9 147.904L789.406 152.062H785.9V147.904ZM792.902 152.062H790.171L786.292 147.456H789.462L792.902 152.062ZM789.742 146.869L785.9 141.797V134.244L792.259 146.878L789.742 146.869ZM779 146.869L785.313 134.235V141.797L781.481 146.916L779 146.869ZM778.32 152.062L781.77 147.456H784.93L781.07 152.053L778.32 152.062ZM777.387 157.312L781.322 152.65H785.313V157.312H777.387Z" fill="#121111"/>
<path d="M1107.9 343.557L1103.47 338.308H1106.87L1102.99 333.114H1106.03L1098.48 318L1090.93 333.114H1093.91L1090.02 338.308H1093.43L1089 343.557H1098.18V349.552H1098.77V343.557H1107.9ZM1106.64 342.97H1098.71V338.308H1102.71L1106.64 342.97ZM1098.74 328.378L1101.85 332.517H1098.74V328.378ZM1098.16 332.517H1095.05L1098.16 328.378V332.517ZM1098.16 337.711H1094.66L1098.16 333.552V337.711ZM1098.74 333.552L1102.25 337.711H1098.74V333.552ZM1105.75 337.711H1103.01L1099.14 333.105H1102.31L1105.75 337.711ZM1102.58 332.517L1098.74 327.445V319.893L1105.1 332.527L1102.58 332.517ZM1091.84 332.517L1098.16 319.883V327.445L1094.32 332.564L1091.84 332.517ZM1091.16 337.711L1094.61 333.105H1097.77L1093.91 337.702L1091.16 337.711ZM1090.23 342.96L1094.17 338.298H1098.16V342.96H1090.23Z" fill="#121111"/>
<path d="M1454.9 500.557L1450.47 495.308H1453.87L1449.99 490.114H1453.03L1445.48 475L1437.93 490.114H1440.91L1437.02 495.308H1440.43L1436 500.557H1445.18V506.552H1445.77V500.557H1454.9ZM1453.64 499.97H1445.71V495.308H1449.71L1453.64 499.97ZM1445.74 485.378L1448.85 489.517H1445.74V485.378ZM1445.16 489.517H1442.05L1445.16 485.378V489.517ZM1445.16 494.711H1441.66L1445.16 490.552V494.711ZM1445.74 490.552L1449.25 494.711H1445.74V490.552ZM1452.75 494.711H1450.01L1446.14 490.105H1449.31L1452.75 494.711ZM1449.58 489.517L1445.74 484.445V476.893L1452.1 489.527L1449.58 489.517ZM1438.84 489.517L1445.16 476.883V484.445L1441.32 489.564L1438.84 489.517ZM1438.16 494.711L1441.61 490.105H1444.77L1440.91 494.702L1438.16 494.711ZM1437.23 499.96L1441.17 495.298H1445.16V499.96H1437.23Z" fill="#121111"/>
<path d="M78.8998 849.557L74.4708 844.308H77.8741L73.986 839.114H77.035L69.4825 824L61.93 839.114H64.9137L61.0163 844.308H64.4289L60 849.557H69.1841V855.552H69.7715V849.557H78.8998ZM77.641 848.97H69.7063V844.308H73.7063L77.641 848.97ZM69.7436 834.378L72.8485 838.517H69.7436V834.378ZM69.1562 838.517H66.0513L69.1562 834.378V838.517ZM69.1562 843.711H65.6597L69.1562 839.552V843.711ZM69.7436 839.552L73.2494 843.711H69.7436V839.552ZM76.7459 843.711H74.014L70.1352 839.105H73.3053L76.7459 843.711ZM73.5851 838.517L69.7436 833.445V825.893L76.1025 838.527L73.5851 838.517ZM62.8438 838.517L69.1562 825.883V833.445L65.324 838.564L62.8438 838.517ZM62.1631 843.711L65.613 839.105H68.7739L64.9137 843.702L62.1631 843.711ZM61.2307 848.96L65.1655 844.298H69.1562V848.96H61.2307Z" fill="#121111"/>
<path d="M1600.9 980.557L1596.47 975.308H1599.87L1595.99 970.114H1599.03L1591.48 955L1583.93 970.114H1586.91L1583.02 975.308H1586.43L1582 980.557H1591.18V986.552H1591.77V980.557H1600.9ZM1599.64 979.97H1591.71V975.308H1595.71L1599.64 979.97ZM1591.74 965.378L1594.85 969.517H1591.74V965.378ZM1591.16 969.517H1588.05L1591.16 965.378V969.517ZM1591.16 974.711H1587.66L1591.16 970.552V974.711ZM1591.74 970.552L1595.25 974.711H1591.74V970.552ZM1598.75 974.711H1596.01L1592.14 970.105H1595.31L1598.75 974.711ZM1595.58 969.517L1591.74 964.445V956.893L1598.1 969.527L1595.58 969.517ZM1584.84 969.517L1591.16 956.883V964.445L1587.32 969.564L1584.84 969.517ZM1584.16 974.711L1587.61 970.105H1590.77L1586.91 974.702L1584.16 974.711ZM1583.23 979.96L1587.17 975.298H1591.16V979.96H1583.23Z" fill="#121111"/>
</svg>
