<svg width="169" height="109" viewBox="0 0 169 109" fill="none" xmlns="http://www.w3.org/2000/svg">
<path fill-rule="evenodd" clip-rule="evenodd" d="M11.5871 108.796C5.1877 108.796 0 103.608 0 97.2085V12.2364C0 5.83699 5.1877 0.649292 11.5871 0.649292H54.0731C92.6968 0.649292 92.6968 50.8601 69.5226 50.8601C92.6968 50.8601 100.422 108.796 54.0731 108.796H11.5871ZM27.0366 46.9977C24.9035 46.9977 23.1742 45.2681 23.1742 43.1353V19.9611C23.1742 17.828 24.9035 16.0988 27.0366 16.0988H46.3484C46.3484 16.0988 61.7979 16.0988 61.7979 31.5482C61.7979 46.9977 46.3484 46.9977 46.3484 46.9977H27.0366ZM27.0366 62.4472C24.9035 62.4472 23.1742 64.1767 23.1742 66.3095V89.4837C23.1742 91.6165 24.9035 93.3461 27.0366 93.3461H54.0731C54.0731 93.3461 65.6602 93.3461 65.6602 77.8966C65.6602 62.4472 54.0731 62.4472 54.0731 62.4472H27.0366Z" fill="white" stroke="white" stroke-width="0.00024"/>
<path fill-rule="evenodd" clip-rule="evenodd" d="M158.349 70.1981C164.752 70.1981 170.108 64.9182 168.802 58.6504C159.18 12.4592 92.0232 16.7234 92.6968 70.1981C93.2105 110.929 150.126 123.991 166.884 87.0874C169.546 81.2244 163.569 77.8942 158.644 77.8942C154.268 77.8942 150.874 81.9312 148.078 85.2984C140.028 94.9929 115.584 94.2892 112.356 74.1439C112.013 72.0064 113.788 70.1981 115.953 70.1981H158.349ZM114.468 54.72C113.33 54.72 112.594 53.5273 113.202 52.5648C121.387 39.6004 141.064 39.7402 149.395 52.5509C150.02 53.5126 149.286 54.72 148.139 54.72H114.468Z" fill="white" stroke="white" stroke-width="0.00024"/>
<path d="M115.871 8.37402C111.605 8.37402 108.146 11.8325 108.146 16.0988C108.146 20.365 111.605 23.8235 115.871 23.8235H146.77C151.036 23.8235 154.495 20.365 154.495 16.0988C154.495 11.8325 151.036 8.37402 146.77 8.37402H115.871Z" fill="white" stroke="white" stroke-width="0.00024"/>
</svg>
