<svg width="1920" height="1080" viewBox="0 0 1920 1080" fill="none" xmlns="http://www.w3.org/2000/svg">
<path d="M1920 0H0V1080H1920V0Z" fill="#8FD19F"/>
<path d="M1919 1V1079H1V1H1919ZM1920 0H0V1080H1920V0Z" fill="#8FD19F"/>
<g opacity="0.4">
<path d="M1132 101.59L1128.5 97.43H1131.19L1128.11 93.33H1130.47L1124.47 81.33L1118.47 93.33H1120.83L1117.75 97.43H1120.45L1116.95 101.59H1124.22V106.33H1124.68V101.59H1132ZM1131 101.13H1124.73V97.43H1127.89L1131 101.13ZM1124.73 89.59L1127.19 92.86H1124.73V89.59ZM1124.27 92.86H1121.81L1124.27 89.59V92.86ZM1124.27 96.97H1121.49L1124.27 93.68V96.97ZM1124.73 93.68L1127.5 96.97H1124.73V93.68ZM1130.27 96.97H1128.11L1125 93.33H1127.5L1130.27 96.97ZM1127.76 92.86L1124.76 88.86V82.87L1129.76 92.87L1127.76 92.86ZM1119.27 92.86L1124.27 82.86V88.8L1121.27 92.8L1119.27 92.86ZM1118.73 96.97L1121.46 93.33H1123.96L1120.9 97L1118.73 96.97ZM1117.99 101.13L1121.1 97.43H1124.27V101.13H1117.99Z" fill="#121111"/>
</g>
<g opacity="0.4">
<path d="M1202 532.69L1197.86 527.77H1201L1197.35 522.91H1200.15L1193.07 508.76L1186 522.91H1188.8L1185.15 527.77H1188.34L1184.19 532.69H1192.8V538.3H1193.35V532.69H1202ZM1200.83 532.14H1193.4V527.77H1197.14L1200.83 532.14ZM1193.4 518.48L1196.31 522.36H1193.4V518.48ZM1192.85 522.36H1189.94L1192.85 518.48V522.36ZM1192.85 527.23H1189.57L1192.85 523.33V527.23ZM1193.4 523.33L1196.68 527.23H1193.4V523.33ZM1199.96 527.23H1197.4L1193.76 522.91H1196.76L1199.96 527.23ZM1196.96 522.36L1193.37 517.57V510.57L1199.28 522.4L1196.96 522.36ZM1186.9 522.36L1192.82 510.53V517.53L1189.23 522.32L1186.9 522.36ZM1186.26 527.23L1189.5 522.91H1192.5L1188.86 527.23H1186.26ZM1185.39 532.14L1189.08 527.77H1192.82V532.14H1185.39Z" fill="#121111"/>
</g>
<g opacity="0.4">
<path d="M835.5 470.54L831.36 465.62H834.55L830.9 460.76H833.7L826.62 446.61L819.55 460.76H822.35L818.7 465.62H821.89L817.74 470.54H826.35V476.16H826.9V470.54H835.5ZM834.33 470H826.9V465.62H830.64L834.33 470ZM826.9 456.33L829.81 460.21H826.9V456.33ZM826.35 460.21H823.44L826.35 456.33V460.21ZM826.35 465.08H823.07L826.35 461.18V465.08ZM826.9 461.18L830.18 465.08H826.9V461.18ZM833.45 465.08H830.9L827.26 460.76H830.26L833.45 465.08ZM830.45 460.21L826.86 455.42V448.42L832.77 460.25L830.45 460.21ZM820.39 460.21L826.31 448.38V455.38L822.72 460.17L820.39 460.21ZM819.75 465.08L822.99 460.76H825.99L822.35 465.08H819.75ZM818.88 470L822.57 465.62H826.31V470H818.88Z" fill="#121111"/>
</g>
<g opacity="0.4">
<path d="M1660.27 175.63L1655.27 169.69H1659.12L1654.72 163.82H1658.09L1649.55 146.74L1641 163.82H1644.38L1639.98 169.69H1643.83L1638.83 175.63H1649.21V182.4H1649.87V175.63H1660.27ZM1658.85 174.97H1649.85V169.69H1654.37L1658.85 174.97ZM1649.85 158.48L1653.36 163.16H1649.85V158.48ZM1649.19 163.16H1645.68L1649.19 158.48V163.16ZM1649.19 169.03H1645.19L1649.19 164.33V169.03ZM1649.85 164.33L1653.85 169.03H1649.85V164.33ZM1657.77 169.03H1654.68L1650.29 163.82H1653.86L1657.77 169.03ZM1654.19 163.16L1649.85 157.38V148.88L1656.99 163.16H1654.19ZM1642.05 163.16L1649.19 148.88V157.38L1644.86 163.16H1642.05ZM1641.28 169.03L1645.19 163.82H1648.76L1644.4 169L1641.28 169.03ZM1640.28 174.97L1644.72 169.69H1649.24V175L1640.28 174.97Z" fill="#121111"/>
</g>
<g opacity="0.4">
<path d="M1865.24 86.94L1861.09 82H1864.28L1860.63 77.14H1863.43L1856.36 63L1849.28 77.16H1852.08L1848.43 82H1851.62L1847.48 86.92H1856.08V92.53H1856.63V86.94H1865.24ZM1864.06 86.39H1856.63V82H1860.37L1864.06 86.39ZM1856.63 72.73L1859.54 76.61H1856.63V72.73ZM1856.08 76.61H1853.17L1856.08 72.73V76.61ZM1856.08 81.47H1852.8L1856.08 77.58V81.47ZM1856.63 77.58L1859.91 81.47H1856.63V77.58ZM1863.19 81.47H1860.63L1857 77.16H1860L1863.19 81.47ZM1860.19 76.61L1856.6 71.82V64.82L1862.52 76.65L1860.19 76.61ZM1850.19 76.61L1856.1 64.78V71.78L1852.51 76.57L1850.19 76.61ZM1849.55 81.47L1852.78 77.16H1855.78L1852.14 81.47H1849.55ZM1848.67 86.39L1852.36 82.02H1856.1V86.39H1848.67Z" fill="#121111"/>
</g>
<g opacity="0.4">
<path d="M1431 704.89L1427 700.14H1430L1426.48 695.45H1429.18L1422.35 681.78L1415.52 695.45H1418.22L1414.7 700.14H1417.78L1413.78 704.89H1422.09V710.31H1422.61V704.89H1431ZM1429.87 704.36H1422.69V700.14H1426.31L1429.87 704.36ZM1422.69 691.17L1425.5 694.92H1422.69V691.17ZM1422.17 694.92H1419.36L1422.17 691.17V694.92ZM1422.17 699.61H1419L1422.17 695.85V699.61ZM1422.69 695.85L1425.86 699.61H1422.69V695.85ZM1429.02 699.61H1426.55L1423.04 695.45H1425.9L1429.02 699.61ZM1426.16 694.92L1422.69 690.29V683.49L1428.41 694.92H1426.16ZM1416.45 694.92L1422.17 683.49V690.29L1418.7 694.92H1416.45ZM1415.84 699.61L1418.96 695.45H1421.82L1418.31 699.61H1415.84ZM1414.99 704.36L1418.55 700.14H1422.17V704.36H1414.99Z" fill="#121111"/>
</g>
<g opacity="0.4">
<path d="M1671 688.78L1667.5 684.63H1670.2L1667.12 680.52H1669.48L1663.48 668.57L1657.48 680.52H1659.84L1656.76 684.63H1659.45L1655.95 688.78H1663.22V693.52H1663.68V688.78H1671ZM1670 688.32H1663.72V684.63H1666.89L1670 688.32ZM1663.72 676.78L1666.18 680.06H1663.72V676.78ZM1663.26 680.06H1660.8L1663.26 676.78V680.06ZM1663.26 684.17H1660.49L1663.26 680.87V684.17ZM1663.72 680.87L1666.5 684.17H1663.72V680.87ZM1669.26 684.17H1667.1L1664.03 680.52H1666.53L1669.26 684.17ZM1666.76 680.06L1663.76 676.06V670.06L1668.76 680.06H1666.76ZM1658.26 680.06L1663.26 670.06V676.06L1660.26 680.06H1658.26ZM1657.72 684.17L1660.46 680.52H1662.96L1659.88 684.17H1657.72ZM1656.99 688.32L1660.1 684.63H1663.26V688.32H1656.99Z" fill="#121111"/>
</g>
<g opacity="0.4">
<path d="M1415.63 952.17L1410.28 945.83H1414.4L1409.69 939.55H1413.3L1404.17 921.29L1395.05 939.55H1398.65L1393.95 945.83H1398.07L1392.72 952.17H1403.82V959.41H1404.53V952.17H1415.63ZM1414.11 951.47H1404.53V945.83H1409.36L1414.11 951.47ZM1404.53 933.84L1408.28 938.84H1404.53V933.84ZM1403.82 938.84H1400.07L1403.82 933.84V938.84ZM1403.82 945.12H1399.59L1403.82 940.12V945.12ZM1404.53 940.12L1408.76 945.12H1404.53V940.12ZM1412.99 945.12H1409.69L1404.99 939.55H1408.81L1412.99 945.12ZM1409.16 938.84L1404.53 932.66V923.58L1412.16 938.84H1409.16ZM1396.16 938.84L1403.79 923.58V932.66L1399.15 938.84H1396.16ZM1395.33 945.12L1399.51 939.55H1403.32L1398.63 945.12H1395.33ZM1394.21 951.47L1398.96 945.83H1403.79V951.47H1394.21Z" fill="#121111"/>
</g>
<g opacity="0.4">
<path d="M690.54 276.25L687.04 272.09H689.74L686.65 268H689L683 256L677 268H679.37L676.28 272.11H679L675.5 276.27H682.77V281H683.23V276.26L690.54 276.25ZM689.54 275.78H683.26V272.09H686.42L689.54 275.78ZM683.26 264.24L685.72 267.52H683.26V264.24ZM682.8 267.52H680.34L682.8 264.24V267.52ZM682.8 271.63H680L682.77 268.34L682.8 271.63ZM683.26 268.34L686.03 271.63H683.26V268.34ZM688.8 271.63H686.64L683.58 268H686.08L688.8 271.63ZM686.3 267.52L683.3 263.52V257.58L688.3 267.58L686.3 267.52ZM677.8 267.52L682.8 257.52V263.46L679.8 267.46L677.8 267.52ZM677.26 271.63L680 268H682.5L679.43 271.65L677.26 271.63ZM676.52 275.78L679.64 272.09H682.8V275.78H676.52Z" fill="#121111"/>
</g>
<g opacity="0.4">
<path d="M361 223.28L356.25 217.65H359.9L355.73 212.08H359L350.9 195.87L342.8 212.08H346L341.82 217.65H345.48L340.73 223.28H350.58V229.71H351.21V223.28H361ZM359.65 222.65H351.14V217.65H355.43L359.65 222.65ZM351.18 207L354.51 211.44H351.18V207ZM350.55 211.44H347.22L350.55 207V211.44ZM350.55 217.01H346.8L350.55 212.55V217.01ZM351.18 212.55L354.94 217.01H351.18V212.55ZM358.69 217.01H355.76L351.6 212.07H355L358.69 217.01ZM355.3 211.44L351.18 206V197.9L358 211.45L355.3 211.44ZM343.78 211.44L350.55 197.89V206L346.44 211.49L343.78 211.44ZM343.05 217.01L346.75 212.07H350.14L346 217L343.05 217.01ZM342.05 222.64L346.27 217.64H350.55V222.64H342.05Z" fill="#121111"/>
</g>
<g opacity="0.4">
<path d="M450.83 660.2L446.68 655.28H449.87L446.23 650.42H449L442 636.27L434.92 650.42H437.72L434 655.28H437.19L433.05 660.2H441.65V665.82H442.2V660.2H450.83ZM449.65 659.66H442.22V655.28H446L449.65 659.66ZM442.22 646L445.13 649.88H442.22V646ZM441.67 649.88H438.76L441.67 646V649.88ZM441.67 654.75H438.39L441.67 650.85V654.75ZM442.22 650.85L445.5 654.75H442.22V650.85ZM448.78 654.75H446.22L442.58 650.43H445.58L448.78 654.75ZM445.78 649.88L442.19 645.09V638.09L448.11 649.92L445.78 649.88ZM435.73 649.88L441.67 638V645L438.08 649.79L435.73 649.88ZM435.09 654.75L438.32 650.43H441.32L437.68 654.75H435.09ZM434.22 659.67L437.9 655.29H441.64V659.67H434.22Z" fill="#121111"/>
</g>
<g opacity="0.4">
<path d="M109 977.37L104.86 972.45H108.05L104.4 967.59H107.2L100.12 953.44L93.05 967.59H95.84L92.2 972.45H95.4L91.25 977.37H99.86V983H100.41V977.38L109 977.37ZM107.82 976.83H100.4V972.45H104.14L107.82 976.83ZM100.4 963.16L103.3 967.04H100.4V963.16ZM99.85 967.04H97L99.91 963.16L99.85 967.04ZM99.85 971.91H96.57L99.86 968.01L99.85 971.91ZM100.4 968.01L103.68 971.91H100.4V968.01ZM106.95 971.91H104.4L100.77 967.59H103.77L106.95 971.91ZM104 967L100.41 962.21V955.21L106.32 967H104ZM93.94 967L99.86 955.17V962.17L96.26 967H93.94ZM93.3 971.87L96.54 967.55H99.54L95.9 971.87H93.3ZM92.43 976.79L96.11 972.41H99.86V976.79H92.43Z" fill="#121111"/>
</g>
<path d="M150.91 678.11H150.66L150.16 678.16L149.16 678.26C148.74 678.26 148.32 678.32 147.9 678.33V675.49H146.56V678.33C146.16 678.33 145.75 678.33 145.34 678.26L144.34 678.16L143.84 678.11H143.58H143.32L143.53 678.27L143.74 678.42L143.96 678.56L144.19 678.68C144.51 678.844 144.845 678.978 145.19 679.08C145.86 679.288 146.558 679.392 147.26 679.39C147.958 679.393 148.653 679.288 149.32 679.08C149.666 678.98 150.001 678.846 150.32 678.68L150.54 678.56L150.77 678.42L150.98 678.27L151.18 678.11H150.91Z" fill="#121111"/>
<path d="M144.54 668.18H150C150.051 668.181 150.101 668.169 150.146 668.144C150.19 668.12 150.228 668.084 150.254 668.04C150.281 667.997 150.295 667.947 150.296 667.896C150.297 667.845 150.285 667.795 150.26 667.75L147.52 663.2C147.492 663.157 147.453 663.121 147.408 663.096C147.363 663.072 147.312 663.059 147.26 663.059C147.208 663.059 147.157 663.072 147.112 663.096C147.067 663.121 147.028 663.157 147 663.2L144.26 667.75C144.234 667.796 144.222 667.848 144.223 667.901C144.225 667.954 144.241 668.005 144.27 668.049C144.299 668.094 144.339 668.129 144.387 668.152C144.434 668.175 144.487 668.185 144.54 668.18Z" fill="#121111"/>
<path d="M143.85 671.86H150.71C150.99 671.86 151.15 671.47 150.98 671.19L149.44 668.72C149.415 668.681 149.381 668.649 149.341 668.626C149.301 668.603 149.256 668.591 149.21 668.59H145.34C145.296 668.593 145.253 668.607 145.215 668.629C145.177 668.652 145.144 668.683 145.12 668.72L143.57 671.19C143.4 671.47 143.57 671.86 143.85 671.86Z" fill="#121111"/>
<path d="M151.44 674.84L149.68 672.37C149.655 672.336 149.622 672.308 149.583 672.289C149.545 672.269 149.503 672.26 149.46 672.26H145.1C145.057 672.26 145.015 672.269 144.977 672.289C144.939 672.308 144.905 672.336 144.88 672.37L143.12 674.84C142.93 675.11 143.12 675.52 143.38 675.52H151.17C151.244 675.51 151.314 675.48 151.372 675.435C151.431 675.389 151.476 675.328 151.504 675.259C151.531 675.19 151.54 675.114 151.528 675.041C151.517 674.967 151.487 674.898 151.44 674.84Z" fill="#121111"/>
<path d="M1748.78 936.53H1748.36L1747.54 936.62C1747 936.68 1746.46 936.74 1745.93 936.78C1745.23 936.84 1744.54 936.88 1743.85 936.9V932.2H1741.64V936.9C1740.97 936.9 1740.3 936.84 1739.64 936.78C1739.11 936.78 1738.57 936.68 1738.03 936.62L1737.21 936.53H1736.79C1736.65 936.52 1736.5 936.52 1736.36 936.53L1736.7 936.8L1737.05 937.05L1737.41 937.27L1737.79 937.48C1738.3 937.749 1738.83 937.97 1739.38 938.14C1740.49 938.485 1741.64 938.657 1742.8 938.65C1743.96 938.651 1745.11 938.479 1746.21 938.14C1746.76 937.962 1747.29 937.741 1747.8 937.48L1748.18 937.27L1748.54 937.04C1748.66 936.97 1748.78 936.88 1748.89 936.8L1749.23 936.53C1749.08 936.519 1748.93 936.519 1748.78 936.53Z" fill="#121111"/>
<path d="M1738.25 920.12H1747.25C1747.33 920.122 1747.42 920.101 1747.49 920.06C1747.56 920.02 1747.63 919.961 1747.67 919.889C1747.71 919.817 1747.74 919.735 1747.74 919.651C1747.74 919.567 1747.72 919.484 1747.68 919.41L1743.16 911.89C1743.11 911.816 1743.05 911.754 1742.97 911.711C1742.9 911.669 1742.81 911.646 1742.72 911.646C1742.64 911.646 1742.55 911.669 1742.48 911.711C1742.4 911.754 1742.34 911.816 1742.29 911.89L1737.77 919.41C1737.73 919.488 1737.71 919.576 1737.71 919.664C1737.71 919.753 1737.74 919.839 1737.79 919.913C1737.84 919.986 1737.91 920.045 1737.99 920.081C1738.07 920.118 1738.16 920.131 1738.25 920.12Z" fill="#121111"/>
<path d="M1737.11 926.19H1748.44C1748.91 926.19 1749.18 925.55 1748.9 925.1L1746.35 921.01C1746.31 920.947 1746.25 920.895 1746.19 920.859C1746.12 920.822 1746.05 920.802 1745.97 920.8H1739.58C1739.5 920.803 1739.43 920.824 1739.37 920.861C1739.3 920.897 1739.24 920.948 1739.2 921.01L1736.65 925.1C1736.37 925.55 1736.64 926.19 1737.11 926.19Z" fill="#121111"/>
<path d="M1749.65 931.13L1746.74 927.04C1746.7 926.982 1746.65 926.935 1746.58 926.902C1746.52 926.869 1746.45 926.851 1746.38 926.85H1739.17C1739.1 926.851 1739.03 926.869 1738.97 926.902C1738.9 926.935 1738.85 926.982 1738.81 927.04L1735.9 931.13C1735.83 931.225 1735.78 931.338 1735.76 931.458C1735.74 931.577 1735.76 931.699 1735.8 931.812C1735.84 931.924 1735.92 932.023 1736.01 932.098C1736.11 932.173 1736.22 932.222 1736.34 932.24H1749.21C1749.33 932.219 1749.44 932.169 1749.53 932.093C1749.62 932.018 1749.7 931.92 1749.74 931.808C1749.79 931.697 1749.8 931.576 1749.78 931.457C1749.77 931.339 1749.72 931.226 1749.65 931.13Z" fill="#121111"/>
<path d="M1369.48 230.93H1369.36H1369.12H1368.65H1368.05V229.57H1367.41V230.93H1366.83H1366.36H1366.13H1365.88L1365.98 231.01L1366.08 231.08L1366.19 231.14L1366.29 231.2C1366.44 231.278 1366.6 231.341 1366.76 231.39C1367.08 231.492 1367.42 231.543 1367.76 231.54C1368.1 231.542 1368.44 231.491 1368.76 231.39C1368.92 231.341 1369.07 231.278 1369.22 231.2L1369.33 231.14L1369.43 231.08L1369.54 231.01L1369.63 230.93H1369.48Z" fill="#121111"/>
<path d="M1366.43 226.18H1369.05C1369.07 226.181 1369.1 226.175 1369.12 226.164C1369.14 226.153 1369.16 226.136 1369.17 226.116C1369.18 226.096 1369.19 226.073 1369.19 226.049C1369.19 226.025 1369.19 226.002 1369.18 225.98L1367.87 223.8C1367.86 223.779 1367.84 223.762 1367.82 223.751C1367.79 223.739 1367.77 223.733 1367.75 223.733C1367.72 223.733 1367.7 223.739 1367.67 223.751C1367.65 223.762 1367.63 223.779 1367.62 223.8L1366.31 225.98C1366.3 226 1366.29 226.024 1366.29 226.048C1366.29 226.073 1366.3 226.097 1366.31 226.117C1366.32 226.138 1366.34 226.155 1366.36 226.166C1366.38 226.177 1366.41 226.182 1366.43 226.18Z" fill="#121111"/>
<path d="M1366.1 227.94H1369.38C1369.52 227.94 1369.59 227.75 1369.51 227.62L1368.77 226.44C1368.76 226.422 1368.75 226.406 1368.73 226.396C1368.71 226.385 1368.69 226.38 1368.67 226.38H1366.82C1366.8 226.382 1366.78 226.388 1366.76 226.398C1366.74 226.408 1366.72 226.423 1366.71 226.44L1365.97 227.62C1365.89 227.75 1366 227.94 1366.1 227.94Z" fill="#121111"/>
<path d="M1369.73 229.37L1368.89 228.18C1368.88 228.164 1368.86 228.151 1368.84 228.143C1368.82 228.134 1368.8 228.13 1368.78 228.13H1366.7C1366.68 228.13 1366.66 228.134 1366.64 228.143C1366.63 228.151 1366.61 228.164 1366.6 228.18L1365.75 229.37C1365.73 229.398 1365.72 229.43 1365.71 229.465C1365.71 229.5 1365.71 229.535 1365.72 229.567C1365.74 229.6 1365.76 229.628 1365.79 229.65C1365.81 229.671 1365.85 229.685 1365.88 229.69H1369.6C1369.63 229.685 1369.67 229.671 1369.69 229.65C1369.72 229.628 1369.74 229.6 1369.76 229.567C1369.77 229.535 1369.77 229.5 1369.77 229.465C1369.77 229.43 1369.75 229.398 1369.73 229.37Z" fill="#121111"/>
<path d="M1865.54 517.74H1865.35H1864.97L1864.23 517.82H1863.23V515.66H1862.23V517.82H1861.3L1860.56 517.74H1860.18H1859.99H1859.79L1859.95 517.87L1860.11 517.98L1860.28 518.09L1860.45 518.18C1860.68 518.3 1860.93 518.401 1861.18 518.48C1861.69 518.64 1862.22 518.721 1862.75 518.72C1863.28 518.721 1863.81 518.64 1864.31 518.48C1864.56 518.401 1864.81 518.3 1865.04 518.18C1865.21 518.08 1865.21 518.08 1865.38 517.98L1865.54 517.87L1865.7 517.74H1865.54Z" fill="#121111"/>
<path d="M1860.71 510.21H1864.86C1864.9 510.214 1864.94 510.207 1864.97 510.19C1865.01 510.173 1865.04 510.146 1865.06 510.112C1865.08 510.079 1865.09 510.041 1865.09 510.001C1865.09 509.962 1865.08 509.923 1865.06 509.89L1862.98 506.44C1862.96 506.407 1862.93 506.38 1862.9 506.361C1862.86 506.342 1862.82 506.332 1862.79 506.332C1862.75 506.332 1862.71 506.342 1862.67 506.361C1862.64 506.38 1862.61 506.407 1862.59 506.44L1860.51 509.89C1860.49 509.923 1860.48 509.962 1860.48 510.001C1860.48 510.041 1860.49 510.079 1860.51 510.112C1860.53 510.146 1860.56 510.173 1860.6 510.19C1860.63 510.207 1860.67 510.214 1860.71 510.21Z" fill="#121111"/>
<path d="M1860.19 513H1865.39C1865.6 513 1865.72 512.7 1865.59 512.5L1864.42 510.62C1864.4 510.591 1864.38 510.568 1864.35 510.552C1864.32 510.536 1864.28 510.529 1864.25 510.53H1861.32C1861.29 510.531 1861.25 510.54 1861.22 510.555C1861.2 510.571 1861.17 510.593 1861.15 510.62L1860 512.5C1859.85 512.7 1860 513 1860.19 513Z" fill="#121111"/>
<path d="M1865.94 515.26L1864.6 513.39C1864.58 513.362 1864.56 513.339 1864.53 513.323C1864.5 513.307 1864.47 513.299 1864.44 513.3H1861.13C1861.1 513.3 1861.07 513.309 1861.04 513.324C1861.01 513.34 1860.99 513.363 1860.97 513.39L1859.63 515.26C1859.49 515.47 1859.63 515.77 1859.83 515.77H1865.74C1866 515.77 1866.08 515.47 1865.94 515.26Z" fill="#121111"/>
<path d="M959.81 307H959.57L959.08 307.06L958.08 307.15C957.67 307.15 957.27 307.21 956.86 307.22V304.45H955.56V307.22L954.37 307.15L953.42 307.06L953 307H952.75H952.5L952.7 307.16L952.91 307.31L953.12 307.44L953.34 307.56C953.641 307.719 953.955 307.849 954.28 307.95C954.928 308.148 955.602 308.25 956.28 308.25C956.958 308.251 957.632 308.15 958.28 307.95C958.605 307.851 958.92 307.721 959.22 307.56L959.44 307.44L959.66 307.31L959.87 307.16L960.06 307H959.81Z" fill="#121111"/>
<path d="M953.62 297.29H958.94C958.99 297.291 959.039 297.279 959.083 297.255C959.126 297.231 959.163 297.196 959.188 297.153C959.214 297.111 959.227 297.062 959.228 297.012C959.228 296.962 959.215 296.913 959.19 296.87L956.53 292.45C956.503 292.407 956.466 292.371 956.421 292.346C956.376 292.321 956.326 292.308 956.275 292.308C956.224 292.308 956.174 292.321 956.129 292.346C956.084 292.371 956.047 292.407 956.02 292.45L953.36 296.87C953.335 296.914 953.322 296.964 953.322 297.015C953.323 297.065 953.337 297.115 953.364 297.158C953.391 297.201 953.429 297.236 953.474 297.259C953.519 297.283 953.569 297.293 953.62 297.29Z" fill="#121111"/>
<path d="M952.94 300.86H959.61C959.89 300.86 960.04 300.49 959.88 300.22L958.38 297.82C958.358 297.781 958.326 297.749 958.287 297.726C958.249 297.703 958.205 297.691 958.16 297.69H954.4C954.356 297.693 954.313 297.707 954.275 297.729C954.237 297.752 954.204 297.783 954.18 297.82L952.68 300.22C952.51 300.49 952.67 300.86 952.94 300.86Z" fill="#121111"/>
<path d="M960.32 303.77L958.61 301.36C958.586 301.326 958.555 301.299 958.518 301.28C958.482 301.261 958.441 301.25 958.4 301.25H954.16C954.119 301.25 954.078 301.259 954.041 301.279C954.004 301.298 953.973 301.326 953.95 301.36L952.24 303.77C952.195 303.825 952.165 303.89 952.154 303.96C952.142 304.03 952.15 304.102 952.175 304.168C952.201 304.234 952.243 304.292 952.299 304.336C952.354 304.381 952.42 304.41 952.49 304.42H960.06C960.129 304.408 960.194 304.379 960.249 304.335C960.304 304.291 960.346 304.233 960.372 304.168C960.399 304.103 960.407 304.032 960.398 303.962C960.389 303.892 960.362 303.826 960.32 303.77Z" fill="#121111"/>
<path d="M1182.52 777.85H1182.21L1181.6 777.92L1180.41 778.04C1179.9 778.04 1179.41 778.11 1178.88 778.12V774.66H1177.25V778.12C1176.75 778.12 1176.25 778.12 1175.76 778.04L1174.57 777.92L1173.96 777.85H1173.65H1173.33L1173.58 778.05L1173.84 778.23L1174.11 778.4L1174.39 778.55C1174.77 778.748 1175.16 778.912 1175.57 779.04C1176.38 779.296 1177.23 779.424 1178.08 779.42C1178.93 779.42 1179.78 779.292 1180.6 779.04C1181 778.914 1181.4 778.75 1181.77 778.55L1182.05 778.4L1182.32 778.23L1182.58 778.05L1182.83 777.85H1182.52Z" fill="#121111"/>
<path d="M1174.75 765.74H1181.42C1181.48 765.743 1181.54 765.728 1181.6 765.699C1181.65 765.67 1181.7 765.627 1181.73 765.574C1181.76 765.521 1181.78 765.46 1181.78 765.398C1181.79 765.336 1181.77 765.274 1181.74 765.22L1178.4 759.67C1178.37 759.614 1178.32 759.567 1178.26 759.535C1178.21 759.503 1178.14 759.486 1178.08 759.486C1178.02 759.486 1177.95 759.503 1177.9 759.535C1177.84 759.567 1177.79 759.614 1177.76 759.67L1174.43 765.22C1174.4 765.274 1174.38 765.336 1174.38 765.4C1174.38 765.463 1174.39 765.526 1174.43 765.58C1174.46 765.634 1174.51 765.678 1174.57 765.706C1174.62 765.734 1174.69 765.746 1174.75 765.74Z" fill="#121111"/>
<path d="M1173.9 770.22H1182.26C1182.35 770.207 1182.43 770.172 1182.5 770.119C1182.57 770.066 1182.62 769.995 1182.65 769.915C1182.69 769.835 1182.7 769.747 1182.69 769.661C1182.68 769.574 1182.65 769.491 1182.6 769.42L1180.72 766.42C1180.69 766.373 1180.65 766.334 1180.6 766.308C1180.55 766.281 1180.5 766.268 1180.44 766.27H1175.73C1175.68 766.273 1175.62 766.287 1175.57 766.313C1175.52 766.339 1175.48 766.376 1175.45 766.42L1173.57 769.42C1173.36 769.75 1173.56 770.22 1173.9 770.22Z" fill="#121111"/>
<path d="M1183.15 773.87L1181.01 770.87C1180.98 770.826 1180.94 770.79 1180.89 770.766C1180.85 770.741 1180.79 770.729 1180.74 770.73H1175.42C1175.37 770.73 1175.32 770.743 1175.27 770.767C1175.23 770.791 1175.19 770.827 1175.16 770.87L1173.01 773.87C1172.78 774.19 1173.01 774.69 1173.33 774.69H1182.83C1183.19 774.69 1183.38 774.19 1183.15 773.87Z" fill="#121111"/>
<path d="M794.07 706.68H793.95H793.71H793.25H792.65V705.32H792V706.68C791.803 706.69 791.607 706.69 791.41 706.68H790.95H790.71H790.59H790.46L790.56 706.76L790.66 706.83L790.77 706.9L790.88 706.96C791.026 707.04 791.18 707.103 791.34 707.15C791.991 707.356 792.689 707.356 793.34 707.15C793.497 707.097 793.651 707.034 793.8 706.96L793.91 706.9L794.02 706.83L794.12 706.76L794.22 706.68H794.07Z" fill="#121111"/>
<path d="M791 701.94H793.61C793.634 701.939 793.658 701.932 793.679 701.919C793.7 701.907 793.717 701.89 793.73 701.869C793.743 701.848 793.75 701.825 793.752 701.801C793.754 701.777 793.75 701.752 793.74 701.73L792.43 699.56C792.416 699.539 792.398 699.522 792.376 699.511C792.354 699.499 792.33 699.493 792.305 699.493C792.28 699.493 792.256 699.499 792.234 699.511C792.212 699.522 792.194 699.539 792.18 699.56L790.87 701.73C790.86 701.752 790.856 701.777 790.858 701.801C790.86 701.825 790.867 701.848 790.88 701.869C790.893 701.89 790.91 701.907 790.931 701.919C790.952 701.932 790.976 701.939 791 701.94Z" fill="#121111"/>
<path d="M790.7 703.69H794C794.034 703.686 794.066 703.673 794.093 703.652C794.121 703.632 794.142 703.605 794.156 703.574C794.17 703.543 794.176 703.509 794.173 703.475C794.171 703.441 794.159 703.408 794.14 703.38L793.4 702.2C793.388 702.182 793.371 702.167 793.352 702.157C793.333 702.147 793.312 702.141 793.29 702.14H791.44C791.418 702.14 791.397 702.145 791.377 702.156C791.358 702.166 791.342 702.182 791.33 702.2L790.59 703.38C790.571 703.406 790.559 703.437 790.554 703.469C790.55 703.501 790.553 703.533 790.564 703.564C790.575 703.594 790.593 703.622 790.616 703.644C790.64 703.666 790.669 703.682 790.7 703.69Z" fill="#121111"/>
<path d="M794.32 705.12L793.48 703.94C793.469 703.924 793.454 703.911 793.436 703.903C793.419 703.894 793.399 703.89 793.38 703.89H791.29C791.271 703.89 791.251 703.894 791.234 703.903C791.216 703.911 791.201 703.924 791.19 703.94L790.35 705.12C790.26 705.25 790.35 705.44 790.47 705.44H794.2C794.34 705.44 794.41 705.25 794.32 705.12Z" fill="#121111"/>
<path d="M543.22 422.39H543.03H542.66L541.94 422.46L541.01 422.51V420.41H540.01V422.51L539.1 422.46L538.38 422.39H538.02H537.83H537.64L537.79 422.51L537.94 422.62L538.11 422.72L538.28 422.82C538.509 422.935 538.746 423.032 538.99 423.11C539.968 423.406 541.012 423.406 541.99 423.11C542.238 423.031 542.479 422.93 542.71 422.81L542.88 422.72L543.04 422.62L543.2 422.51L543.35 422.39H543.22Z" fill="#121111"/>
<path d="M538.5 415H542.5C542.538 415.001 542.576 414.992 542.609 414.973C542.642 414.955 542.67 414.929 542.691 414.897C542.711 414.864 542.722 414.828 542.724 414.79C542.726 414.752 542.717 414.714 542.7 414.68L540.7 411.32C540.679 411.287 540.651 411.26 540.616 411.241C540.582 411.222 540.544 411.212 540.505 411.212C540.466 411.212 540.428 411.222 540.394 411.241C540.359 411.26 540.331 411.287 540.31 411.32L538.31 414.68C538.29 414.713 538.279 414.75 538.279 414.788C538.278 414.827 538.289 414.865 538.308 414.898C538.328 414.93 538.356 414.957 538.39 414.976C538.424 414.994 538.462 415.002 538.5 415Z" fill="#121111"/>
<path d="M538 417.76H543.07C543.28 417.76 543.4 417.47 543.28 417.27L542.14 415.44C542.122 415.412 542.096 415.389 542.067 415.373C542.037 415.357 542.004 415.35 541.97 415.35H539.1C539.067 415.351 539.034 415.36 539.005 415.375C538.975 415.391 538.95 415.413 538.93 415.44L537.79 417.27C537.66 417.47 537.78 417.76 538 417.76Z" fill="#121111"/>
<path d="M543.6 420L542.3 418.17C542.281 418.144 542.257 418.123 542.23 418.108C542.202 418.092 542.172 418.083 542.14 418.08H538.91C538.878 418.083 538.848 418.092 538.82 418.108C538.793 418.123 538.769 418.144 538.75 418.17L537.45 420C537.416 420.043 537.394 420.094 537.386 420.148C537.378 420.202 537.384 420.257 537.405 420.308C537.425 420.359 537.459 420.403 537.502 420.437C537.545 420.471 537.596 420.492 537.65 420.5H543.41C543.63 420.47 543.74 420.17 543.6 420Z" fill="#121111"/>
<path d="M1457.23 379.52H1457.04H1456.67L1455.95 379.59H1455.02V377.49H1454.02V379.59H1453.11L1452.39 379.52H1452.02H1451.84H1451.64L1451.79 379.64L1451.95 379.75L1452.12 379.85L1452.29 379.94C1452.52 380.062 1452.75 380.163 1453 380.24C1453.98 380.537 1455.02 380.537 1456 380.24C1456.25 380.161 1456.49 380.06 1456.72 379.94L1456.88 379.85L1457.05 379.75L1457.21 379.64L1457.36 379.52H1457.23Z" fill="#121111"/>
<path d="M1452.51 372.18H1456.51C1456.55 372.182 1456.59 372.174 1456.62 372.156C1456.65 372.137 1456.68 372.11 1456.7 372.078C1456.72 372.045 1456.73 372.007 1456.73 371.969C1456.73 371.93 1456.72 371.893 1456.7 371.86L1454.7 368.5C1454.68 368.467 1454.65 368.44 1454.62 368.421C1454.58 368.402 1454.54 368.392 1454.51 368.392C1454.47 368.392 1454.43 368.402 1454.39 368.421C1454.36 368.44 1454.33 368.467 1454.31 368.5L1452.31 371.86C1452.29 371.893 1452.28 371.932 1452.28 371.971C1452.28 372.011 1452.29 372.049 1452.31 372.082C1452.33 372.116 1452.36 372.143 1452.4 372.16C1452.43 372.177 1452.47 372.184 1452.51 372.18Z" fill="#121111"/>
<path d="M1452 374.9H1457.07C1457.28 374.9 1457.4 374.61 1457.28 374.41L1456.13 372.58C1456.11 372.552 1456.09 372.529 1456.06 372.513C1456.03 372.497 1456 372.489 1455.97 372.49H1453.1C1453.07 372.491 1453.04 372.5 1453.01 372.516C1452.98 372.531 1452.96 372.553 1452.94 372.58L1451.8 374.41C1451.67 374.61 1451.79 374.9 1452 374.9Z" fill="#121111"/>
<path d="M1457.61 377.11L1456.31 375.28C1456.29 375.253 1456.27 375.23 1456.24 375.214C1456.21 375.199 1456.18 375.19 1456.15 375.19H1452.92C1452.89 375.19 1452.86 375.199 1452.83 375.214C1452.8 375.23 1452.78 375.253 1452.76 375.28L1451.46 377.11C1451.32 377.3 1451.46 377.61 1451.65 377.61H1457.42C1457.63 377.61 1457.75 377.3 1457.61 377.11Z" fill="#121111"/>
<path d="M1692.58 365.45V369.45V370.23H1692.24V369.46V365.46H1692.58M1693.58 364.46H1691.25V369.46C1690.54 369.46 1689.82 369.4 1689.11 369.34C1688.4 369.28 1687.98 369.24 1687.4 369.17L1686.53 369.08L1686.09 369.03H1685.63L1685.99 369.32L1686.36 369.58L1686.75 369.82L1687.15 370.04C1687.69 370.319 1688.25 370.55 1688.83 370.73C1690 371.098 1691.22 371.283 1692.44 371.28C1693.66 371.284 1694.88 371.098 1696.05 370.73C1696.63 370.547 1697.2 370.313 1697.74 370.03L1698.14 369.81C1698.27 369.74 1698.4 369.659 1698.52 369.57L1698.9 369.31C1699.02 369.22 1699.14 369.13 1699.25 369.03H1698.8L1698.36 369.08L1697.48 369.18C1696.91 369.24 1696.34 369.3 1695.78 369.34C1695.04 369.4 1694.31 369.44 1693.58 369.47V364.47V364.46Z" fill="#121111"/>
<path d="M1692.41 344.1L1696.34 350.63H1688.48L1692.41 344.1ZM1692.41 342.67C1692.32 342.67 1692.23 342.694 1692.15 342.74C1692.07 342.785 1692 342.851 1691.95 342.93L1687.17 350.88C1687.12 350.958 1687.1 351.047 1687.1 351.137C1687.1 351.227 1687.13 351.315 1687.18 351.392C1687.22 351.469 1687.29 351.532 1687.37 351.574C1687.45 351.615 1687.54 351.635 1687.63 351.63H1697.2C1697.29 351.632 1697.38 351.61 1697.45 351.568C1697.53 351.525 1697.6 351.463 1697.64 351.387C1697.69 351.311 1697.72 351.224 1697.72 351.135C1697.72 351.047 1697.7 350.958 1697.66 350.88L1692.87 342.93C1692.82 342.85 1692.76 342.784 1692.67 342.739C1692.59 342.693 1692.5 342.669 1692.41 342.67Z" fill="#121111"/>
<path d="M1695.5 353.35L1697.81 357.06H1687L1689.31 353.35H1695.48M1695.77 352.35H1689C1688.92 352.355 1688.85 352.377 1688.78 352.415C1688.71 352.453 1688.65 352.506 1688.61 352.57L1685.91 356.9C1685.61 357.38 1685.91 358.06 1686.39 358.06H1698.39C1698.88 358.06 1699.17 357.38 1698.87 356.9L1696.17 352.57C1696.13 352.503 1696.07 352.448 1696 352.409C1695.93 352.371 1695.85 352.351 1695.77 352.35Z" fill="#121111"/>
<path d="M1696 359.75L1698.63 363.45H1686.3L1688.93 359.75H1696ZM1696.27 358.75H1688.65C1688.58 358.752 1688.5 358.77 1688.44 358.805C1688.37 358.84 1688.31 358.889 1688.27 358.95L1685.19 363.28C1685.11 363.381 1685.06 363.5 1685.04 363.627C1685.03 363.753 1685.04 363.882 1685.09 364C1685.14 364.118 1685.21 364.222 1685.31 364.301C1685.41 364.38 1685.53 364.431 1685.66 364.45H1699.27C1699.4 364.43 1699.51 364.378 1699.61 364.298C1699.71 364.218 1699.79 364.114 1699.83 363.996C1699.88 363.878 1699.9 363.75 1699.88 363.624C1699.86 363.499 1699.81 363.38 1699.73 363.28L1696.66 358.95C1696.61 358.889 1696.56 358.839 1696.49 358.804C1696.42 358.769 1696.35 358.751 1696.27 358.75Z" fill="#121111"/>
<path d="M79.75 444H79.37L78.64 444.08C78.16 444.14 77.64 444.18 77.21 444.22C76.78 444.26 75.98 444.31 75.37 444.33V440.16H73.37V444.32C72.78 444.32 72.18 444.32 71.58 444.22L70.15 444.08L69.42 444H69.04H68.66L68.96 444.25L69.28 444.46L69.6 444.67L69.93 444.85C70.3844 445.087 70.8598 445.281 71.35 445.43C73.3046 446.033 75.3954 446.033 77.35 445.43C77.8387 445.277 78.3137 445.083 78.77 444.85L79.1 444.66L79.42 444.46L79.74 444.24L80.04 444H79.75Z" fill="#121111"/>
<path d="M70.4 429.48H78.4C78.4751 429.483 78.5496 429.466 78.6158 429.43C78.6819 429.394 78.7373 429.342 78.7761 429.277C78.8149 429.213 78.8358 429.139 78.8365 429.064C78.8371 428.989 78.8176 428.915 78.78 428.85L74.78 422.18C74.7399 422.114 74.6834 422.059 74.616 422.021C74.5485 421.983 74.4724 421.963 74.395 421.963C74.3176 421.963 74.2415 421.983 74.174 422.021C74.1066 422.059 74.0501 422.114 74.01 422.18L70.01 428.85C69.9718 428.916 69.9522 428.991 69.9533 429.067C69.9544 429.143 69.9761 429.217 70.0161 429.282C70.0562 429.347 70.113 429.399 70.1807 429.434C70.2483 429.469 70.3241 429.485 70.4 429.48Z" fill="#121111"/>
<path d="M69.39 434.87H79.39C79.81 434.87 80.05 434.3 79.8 433.87L77.53 430.24C77.4961 430.183 77.4476 430.137 77.3896 430.105C77.3315 430.073 77.2661 430.058 77.2 430.06H71.58C71.515 430.063 71.4515 430.081 71.3943 430.112C71.3371 430.143 71.2878 430.187 71.25 430.24L69 433.9C68.73 434.3 69 434.87 69.39 434.87Z" fill="#121111"/>
<path d="M80.51 439.25L77.93 435.62C77.8957 435.567 77.8483 435.523 77.7923 435.493C77.7362 435.463 77.6735 435.449 77.61 435.45H71.22C71.1566 435.449 71.0938 435.463 71.0378 435.493C70.9817 435.523 70.9343 435.567 70.9 435.62L68.32 439.25C68.04 439.64 68.32 440.25 68.7 440.25H80.13C80.56 440.24 80.79 439.64 80.51 439.25Z" fill="#121111"/>
<path d="M404.42 970.16H404.05L403.31 970.24L401.89 970.38C401.27 970.43 400.65 970.46 400.04 970.48V966.31H398.04V970.48C397.45 970.48 396.85 970.48 396.25 970.38L394.82 970.24L394.09 970.16H393.71H393.33L393.63 970.4L393.95 970.62L394.27 970.82L394.61 971.01C395.062 971.244 395.534 971.438 396.02 971.59C397.99 972.203 400.1 972.203 402.07 971.59C402.559 971.437 403.034 971.243 403.49 971.01L403.82 970.82L404.15 970.62L404.46 970.4L404.76 970.16H404.42Z" fill="#121111"/>
<path d="M395.07 955.6H403.07C403.145 955.602 403.219 955.584 403.285 955.548C403.35 955.512 403.406 955.46 403.445 955.396C403.484 955.333 403.506 955.26 403.509 955.185C403.512 955.11 403.495 955.036 403.46 954.97L399.46 948.29C399.418 948.226 399.361 948.174 399.294 948.137C399.227 948.101 399.151 948.082 399.075 948.082C398.999 948.082 398.923 948.101 398.856 948.137C398.789 948.174 398.732 948.226 398.69 948.29L394.69 954.97C394.652 955.035 394.633 955.109 394.634 955.184C394.634 955.259 394.655 955.333 394.694 955.397C394.733 955.462 394.788 955.514 394.854 955.55C394.92 955.586 394.995 955.603 395.07 955.6Z" fill="#121111"/>
<path d="M394.06 961H404.11C404.53 961 404.77 960.42 404.52 960L402.25 956.38C402.217 956.321 402.169 956.273 402.111 956.239C402.053 956.206 401.987 956.189 401.92 956.19H396.25C396.184 956.195 396.121 956.215 396.063 956.247C396.006 956.28 395.957 956.326 395.92 956.38L393.65 960C393.4 960.41 393.64 961 394.06 961Z" fill="#121111"/>
<path d="M405.18 965.37L402.6 961.74C402.566 961.687 402.518 961.643 402.462 961.613C402.406 961.583 402.343 961.569 402.28 961.57H395.89C395.827 961.569 395.764 961.583 395.708 961.613C395.652 961.643 395.604 961.687 395.57 961.74L393 965.37C392.929 965.454 392.882 965.555 392.864 965.664C392.845 965.772 392.857 965.884 392.897 965.986C392.937 966.089 393.004 966.179 393.091 966.246C393.177 966.314 393.281 966.356 393.39 966.37H404.8C404.908 966.355 405.011 966.311 405.096 966.243C405.182 966.175 405.247 966.085 405.286 965.982C405.325 965.88 405.336 965.769 405.317 965.662C405.298 965.554 405.251 965.453 405.18 965.37Z" fill="#121111"/>
<path d="M1100.91 949.8H1100.54L1099.8 949.88L1098.38 950.02C1097.76 950.07 1097.14 950.11 1096.53 950.12V945.95H1094.53V950.12C1093.94 950.12 1093.34 950.12 1092.74 950.02L1091.31 949.88L1090.58 949.8H1090.2H1089.82L1090.12 950.04L1090.44 950.26L1090.76 950.46L1091.09 950.65C1091.55 950.883 1092.02 951.077 1092.51 951.23C1094.46 951.833 1096.56 951.833 1098.51 951.23C1099 951.077 1099.47 950.883 1099.93 950.65L1100.26 950.46L1100.58 950.26C1100.69 950.192 1100.8 950.119 1100.9 950.04C1101 949.966 1101.1 949.886 1101.2 949.8H1100.91Z" fill="#121111"/>
<path d="M1091.56 935.24H1099.56C1099.64 935.243 1099.71 935.226 1099.78 935.19C1099.84 935.154 1099.9 935.102 1099.94 935.037C1099.98 934.973 1100 934.899 1100 934.824C1100 934.749 1099.98 934.675 1099.94 934.61L1095.94 927.94C1095.9 927.874 1095.84 927.819 1095.78 927.781C1095.71 927.743 1095.63 927.723 1095.56 927.723C1095.48 927.723 1095.4 927.743 1095.33 927.781C1095.27 927.819 1095.21 927.874 1095.17 927.94L1091.17 934.61C1091.13 934.676 1091.11 934.751 1091.11 934.827C1091.11 934.903 1091.14 934.977 1091.18 935.042C1091.22 935.107 1091.27 935.159 1091.34 935.194C1091.41 935.229 1091.48 935.245 1091.56 935.24Z" fill="#121111"/>
<path d="M1090.55 940.63H1100.55C1100.97 940.63 1101.21 940.06 1100.96 939.63L1098.69 936C1098.66 935.941 1098.61 935.893 1098.55 935.859C1098.49 935.826 1098.43 935.809 1098.36 935.81H1092.69C1092.62 935.815 1092.56 935.835 1092.5 935.867C1092.45 935.9 1092.4 935.946 1092.36 936L1090.09 939.63C1089.89 940.06 1090.13 940.63 1090.55 940.63Z" fill="#121111"/>
<path d="M1101.67 945L1099.09 941.37C1099.06 941.317 1099.01 941.273 1098.95 941.243C1098.9 941.213 1098.83 941.199 1098.77 941.2H1092.38C1092.32 941.199 1092.25 941.213 1092.2 941.243C1092.14 941.273 1092.09 941.317 1092.06 941.37L1089.48 945C1089.41 945.084 1089.36 945.185 1089.34 945.294C1089.33 945.402 1089.34 945.514 1089.38 945.616C1089.42 945.719 1089.48 945.809 1089.57 945.876C1089.66 945.944 1089.76 945.986 1089.87 946H1101.29C1101.4 945.985 1101.5 945.941 1101.59 945.873C1101.67 945.805 1101.74 945.715 1101.78 945.612C1101.81 945.51 1101.83 945.399 1101.81 945.292C1101.79 945.184 1101.74 945.083 1101.67 945Z" fill="#121111"/>
<path d="M785.5 990.64H785.38H785.14H784.68H784.07V989.4H783.43V990.76H782.84H782.37H782.14H781.89L781.99 990.83L782.09 990.91L782.2 990.97L782.31 991.03C782.456 991.11 782.61 991.173 782.77 991.22C783.093 991.322 783.431 991.373 783.77 991.37C784.109 991.372 784.446 991.321 784.77 991.22C784.929 991.171 785.083 991.108 785.23 991.03L785.34 990.97L785.44 990.91L785.55 990.83L785.64 990.76L785.5 990.64Z" fill="#121111"/>
<path d="M782.45 985.89H785.07C785.094 985.891 785.118 985.885 785.139 985.874C785.16 985.863 785.178 985.846 785.191 985.826C785.204 985.806 785.212 985.783 785.213 985.759C785.215 985.735 785.21 985.712 785.2 985.69L783.89 983.51C783.876 983.489 783.858 983.472 783.836 983.461C783.814 983.449 783.79 983.443 783.765 983.443C783.74 983.443 783.716 983.449 783.694 983.461C783.672 983.472 783.654 983.489 783.64 983.51L782.33 985.69C782.317 985.71 782.31 985.734 782.309 985.758C782.309 985.783 782.315 985.807 782.328 985.827C782.34 985.848 782.358 985.865 782.38 985.876C782.402 985.887 782.426 985.892 782.45 985.89Z" fill="#121111"/>
<path d="M782.12 987.65H785.4C785.54 987.65 785.61 987.46 785.53 987.33L784.8 986.15C784.788 986.132 784.771 986.117 784.752 986.107C784.733 986.097 784.712 986.091 784.69 986.09H782.84C782.818 986.092 782.797 986.098 782.778 986.108C782.759 986.118 782.743 986.133 782.73 986.15L781.99 987.33C781.91 987.46 782 987.65 782.12 987.65Z" fill="#121111"/>
<path d="M785.75 989.08L784.91 987.89C784.893 987.883 784.874 987.879 784.855 987.879C784.836 987.879 784.817 987.883 784.8 987.89H782.72C782.704 987.883 782.687 987.879 782.67 987.879C782.653 987.879 782.636 987.883 782.62 987.89L781.78 989.08C781.759 989.107 781.745 989.139 781.74 989.173C781.734 989.207 781.738 989.242 781.75 989.274C781.762 989.306 781.782 989.334 781.808 989.357C781.835 989.379 781.866 989.394 781.9 989.4H785.62C785.655 989.395 785.687 989.381 785.715 989.36C785.742 989.338 785.764 989.31 785.777 989.277C785.79 989.245 785.794 989.21 785.79 989.175C785.785 989.14 785.771 989.108 785.75 989.08Z" fill="#121111"/>
<path d="M709.18 100.87H708.78L707.98 100.96C707.46 101.02 706.98 101.07 706.43 101.11C705.88 101.15 705.1 101.21 704.43 101.23V96.71H702.31V101.22C701.66 101.22 701.02 101.17 700.36 101.11L698.81 100.96L698.02 100.87H697.62H697.21L697.53 101.13L697.87 101.37C697.98 101.45 698.1 101.52 698.22 101.59L698.58 101.79C699.074 102.045 699.589 102.256 700.12 102.42C701.181 102.756 702.287 102.925 703.4 102.92C704.512 102.919 705.618 102.751 706.68 102.42C707.206 102.252 707.718 102.041 708.21 101.79L708.58 101.59L708.93 101.37L709.27 101.13L709.59 100.87H709.18Z" fill="#121111"/>
<path d="M699.05 85.08H707.75C707.831 85.0828 707.912 85.0642 707.983 85.0259C708.055 84.9876 708.115 84.9311 708.158 84.862C708.2 84.7929 708.224 84.7138 708.226 84.6327C708.228 84.5515 708.209 84.4713 708.17 84.4L703.82 77.17C703.775 77.0998 703.712 77.0421 703.639 77.0022C703.566 76.9622 703.484 76.9413 703.4 76.9413C703.316 76.9413 703.234 76.9622 703.161 77.0022C703.088 77.0421 703.025 77.0998 702.98 77.17L698.63 84.4C698.591 84.4713 698.572 84.5515 698.574 84.6327C698.576 84.7138 698.6 84.7929 698.642 84.862C698.685 84.9311 698.745 84.9876 698.817 85.0259C698.888 85.0642 698.969 85.0828 699.05 85.08Z" fill="#121111"/>
<path d="M698 90.92H708.9C709.35 90.92 709.61 90.31 709.34 89.92L706.88 85.99C706.844 85.9272 706.791 85.8754 706.728 85.8401C706.664 85.8049 706.593 85.7876 706.52 85.79H700.37C700.299 85.7938 700.229 85.8138 700.167 85.8485C700.105 85.8831 700.051 85.9315 700.01 85.99L697.56 89.92C697.24 90.31 697.5 90.92 698 90.92Z" fill="#121111"/>
<path d="M710 95.68L707.2 91.74C707.16 91.6849 707.107 91.6399 707.046 91.6087C706.986 91.5774 706.918 91.5608 706.85 91.56H699.92C699.853 91.5607 699.787 91.5775 699.728 91.6088C699.669 91.6401 699.618 91.6851 699.58 91.74L696.78 95.68C696.48 96.1 696.78 96.75 697.2 96.75H709.58C710.06 96.75 710.31 96.1 710 95.68Z" fill="#121111"/>
<path d="M94.2 112.49H94.01H93.65L92.94 112.55C92.64 112.55 92.33 112.55 92.03 112.61V110.54H91.03V112.6C90.74 112.6 90.44 112.6 90.15 112.6L89.44 112.53H89.08H88.89H88.71L88.85 112.65L89.01 112.75L89.17 112.85L89.33 112.95C89.5554 113.062 89.7895 113.156 90.03 113.23C91.0064 113.537 92.0536 113.537 93.03 113.23C93.2698 113.158 93.5011 113.061 93.72 112.94C93.7797 112.916 93.8367 112.886 93.89 112.85L94.05 112.75L94.21 112.65L94.35 112.53L94.2 112.49Z" fill="#121111"/>
<path d="M89.58 105.3H93.58C93.6183 105.302 93.6564 105.294 93.6902 105.276C93.7241 105.257 93.7523 105.231 93.7719 105.198C93.7914 105.165 93.8016 105.127 93.8013 105.089C93.801 105.05 93.7901 105.013 93.77 104.98L91.77 101.68C91.7506 101.647 91.7229 101.619 91.6895 101.6C91.6562 101.581 91.6184 101.571 91.58 101.571C91.5416 101.571 91.5038 101.581 91.4704 101.6C91.4371 101.619 91.4094 101.647 91.39 101.68L89.39 104.98C89.3731 105.013 89.3648 105.05 89.366 105.087C89.3672 105.124 89.3778 105.16 89.3967 105.192C89.4157 105.224 89.4425 105.251 89.4745 105.27C89.5066 105.289 89.5428 105.299 89.58 105.3Z" fill="#121111"/>
<path d="M89.07 108H94.07C94.27 108 94.39 107.72 94.27 107.52L93.15 105.73C93.132 105.701 93.1071 105.676 93.0775 105.659C93.0478 105.641 93.0144 105.631 92.98 105.63H90.18C90.146 105.633 90.1131 105.644 90.0837 105.661C90.0543 105.678 90.0292 105.702 90.01 105.73L88.89 107.52C88.75 107.68 88.87 108 89.07 108Z" fill="#121111"/>
<path d="M94.57 110.13L93.3 108.33C93.2809 108.306 93.2566 108.286 93.229 108.272C93.2013 108.258 93.1709 108.251 93.14 108.25H90C89.9691 108.251 89.9387 108.258 89.9111 108.272C89.8834 108.286 89.8591 108.306 89.84 108.33L88.56 110.13C88.5279 110.172 88.5075 110.221 88.5007 110.274C88.4939 110.326 88.501 110.379 88.5212 110.428C88.5415 110.476 88.5743 110.519 88.6162 110.551C88.6581 110.583 88.7077 110.603 88.76 110.61H94.4C94.4515 110.602 94.4997 110.58 94.5398 110.546C94.5798 110.513 94.6101 110.47 94.6275 110.42C94.6449 110.371 94.6487 110.318 94.6386 110.267C94.6285 110.216 94.6048 110.169 94.57 110.13Z" fill="#121111"/>
</svg>
