<svg width="24" height="24" viewBox="0 0 668 634" fill="white" xmlns="http://www.w3.org/2000/svg">
<path fill-rule="evenodd" clip-rule="evenodd" d="M633.973 98.6153C634.29 118.833 631.777 144.216 629.527 162.69C628.65 169.895 627.457 175.892 626.177 180.818C654.757 233.667 667.333 297.247 667.333 366.667C667.333 448.947 627.757 516.7 566.127 562.903C505.063 608.683 422.687 633.333 334 633.333C245.313 633.333 162.936 608.683 101.873 562.903C40.2423 516.7 0.666679 448.947 0.666679 366.667C0.666679 297.247 13.244 233.667 41.824 180.817C40.5437 175.892 39.3517 169.895 38.474 162.69C36.2243 144.216 33.711 118.833 34.027 98.6153C34.383 75.8353 37.3607 53.0567 40.6627 30.4597C42.1897 20.0093 44.6143 10.1823 55.961 3.97235C67.5517 -2.37132 79.758 -0.00631908 91.7993 3.40335C132.416 14.9043 170.496 31.036 206.268 50.429C243.983 39.0957 286.61 33.3333 334 33.3333C381.39 33.3333 424.017 39.0957 461.733 50.429C497.503 31.036 535.583 14.9043 576.2 3.40335C588.243 -0.00631908 600.45 -2.37132 612.04 3.97235C623.387 10.1823 625.81 20.0093 627.337 30.4597C630.64 53.0567 633.617 75.8353 633.973 98.6153ZM600.667 366.667C600.667 310.427 587.74 233.333 517.333 233.333C485.593 233.333 455.58 241.673 425.58 250.013C395.607 258.34 365.65 266.667 334 266.667C302.35 266.667 272.393 258.34 242.421 250.013C212.42 241.673 182.405 233.333 150.667 233.333C80.4597 233.333 67.3333 310.657 67.3333 366.667C67.3333 425.453 94.915 474.367 141.863 509.563C189.378 545.187 257.002 566.667 334 566.667C410.997 566.667 478.62 545.183 526.137 509.563C573.087 474.367 600.667 425.453 600.667 366.667ZM267.333 383.333C267.333 429.357 244.948 466.667 217.333 466.667C189.719 466.667 167.333 429.357 167.333 383.333C167.333 337.31 189.719 300 217.333 300C244.948 300 267.333 337.31 267.333 383.333ZM450.667 466.667C478.28 466.667 500.667 429.357 500.667 383.333C500.667 337.31 478.28 300 450.667 300C423.053 300 400.667 337.31 400.667 383.333C400.667 429.357 423.053 466.667 450.667 466.667Z"  fill="white"/>
</svg>
