<svg width="404" height="402" viewBox="0 0 404 402" fill="none" xmlns="http://www.w3.org/2000/svg">
<path d="M149.143 95.5714V69.2143C149.143 44.3645 149.143 31.9398 156.884 24.2197C164.625 16.5 177.083 16.5 202 16.5H334.143C359.06 16.5 371.518 16.5 379.259 24.2197C387 31.9398 387 44.3645 387 69.2143V201C387 225.85 387 238.274 379.259 245.994C371.518 253.714 359.06 253.714 334.143 253.714H307.714M69.8571 385.5H202C226.917 385.5 239.375 385.5 247.116 377.78C254.857 370.06 254.857 357.635 254.857 332.786V201C254.857 176.15 254.857 163.726 247.116 156.006C239.375 148.286 226.917 148.286 202 148.286H69.8571C44.94 148.286 32.4816 148.286 24.7407 156.006C17 163.726 17 176.15 17 201V332.786C17 357.635 17 370.06 24.7407 377.78C32.4816 385.5 44.94 385.5 69.8571 385.5Z" stroke="#8fdca7" stroke-width="33" stroke-linecap="round" stroke-linejoin="round"/>
</svg>
