<?xml version="1.0" encoding="utf-8"?>
<svg version="1.1" id="Camada_1" xmlns="http://www.w3.org/2000/svg" xmlns:xlink="http://www.w3.org/1999/xlink" x="0px" y="0px"
	 viewBox="0 0 24 24" style="enable-background:new 0 0 24 24;" xml:space="preserve">
<style type="text/css">
	.st0{fill-rule:evenodd;clip-rule:evenodd;fill:#FFFFFF;stroke:#FFFFFF;stroke-width:2.400000e-04;}
	.st1{fill:#FFFFFF;stroke:#FFFFFF;stroke-width:2.400000e-04;}
</style>
<g id="SVGRepo_bgCarrier">
</g>
<g id="SVGRepo_tracerCarrier">
</g>
<g id="SVGRepo_iconCarrier">
	<path class="st0" d="M12,18c3.3,0,6-2.7,6-6c0-3.3-2.7-6-6-6c-3.3,0-6,2.7-6,6C6,15.3,8.7,18,12,18z M12,16c2.2,0,4-1.8,4-4
		c0-2.2-1.8-4-4-4c-2.2,0-4,1.8-4,4C8,14.2,9.8,16,12,16z"/>
	<path class="st1" d="M18,5c-0.6,0-1,0.4-1,1s0.4,1,1,1s1-0.4,1-1S18.6,5,18,5z"/>
	<path class="st0" d="M1.7,4.3C1,5.6,1,7.2,1,10.6v2.8c0,3.4,0,5,0.7,6.3c0.6,1.1,1.5,2,2.6,2.6c1.3,0.7,3,0.7,6.3,0.7h2.8
		c3.4,0,5,0,6.3-0.7c1.1-0.6,2-1.5,2.6-2.6c0.7-1.3,0.7-3,0.7-6.3v-2.8c0-3.4,0-5-0.7-6.3c-0.6-1.1-1.5-2-2.6-2.6
		C18.4,1,16.8,1,13.4,1h-2.8c-3.4,0-5,0-6.3,0.7C3.1,2.2,2.2,3.1,1.7,4.3z M13.4,3h-2.8C8.9,3,7.7,3,6.8,3.1
		C5.9,3.1,5.5,3.3,5.2,3.4c-0.8,0.4-1.4,1-1.7,1.7C3.3,5.5,3.1,5.9,3.1,6.8C3,7.7,3,8.9,3,10.6v2.8c0,1.7,0,2.9,0.1,3.8
		c0.1,0.9,0.2,1.3,0.4,1.6c0.4,0.8,1,1.4,1.7,1.7c0.3,0.2,0.8,0.3,1.6,0.4C7.7,21,8.9,21,10.6,21h2.8c1.7,0,2.9,0,3.8-0.1
		c0.9-0.1,1.3-0.2,1.6-0.4c0.8-0.4,1.4-1,1.7-1.7c0.2-0.3,0.3-0.8,0.4-1.6c0.1-0.9,0.1-2.1,0.1-3.8v-2.8c0-1.7,0-2.9-0.1-3.8
		c-0.1-0.9-0.2-1.3-0.4-1.6c-0.4-0.8-1-1.4-1.7-1.7c-0.3-0.2-0.8-0.3-1.6-0.4C16.3,3,15.1,3,13.4,3z"/>
</g>
</svg>
